<svg width="57" height="56" viewBox="0 0 57 56" fill="none" xmlns="http://www.w3.org/2000/svg">
<rect x="4.66699" y="4" width="48" height="48" rx="20" fill="#C0F3DD"/>
<rect x="4.66699" y="4" width="48" height="48" rx="20" stroke="#ECF9F3" stroke-width="8"/>
<path d="M18.667 23L26.8319 28.7154C27.4931 29.1783 27.8237 29.4097 28.1833 29.4993C28.5009 29.5785 28.8331 29.5785 29.1507 29.4993C29.5103 29.4097 29.8409 29.1783 30.5021 28.7154L38.667 23M23.467 36H33.867C35.5471 36 36.3872 36 37.029 35.673C37.5934 35.3854 38.0524 34.9265 38.34 34.362C38.667 33.7202 38.667 32.8802 38.667 31.2V24.8C38.667 23.1198 38.667 22.2798 38.34 21.638C38.0524 21.0735 37.5934 20.6146 37.029 20.327C36.3872 20 35.5471 20 33.867 20H23.467C21.7868 20 20.9468 20 20.305 20.327C19.7405 20.6146 19.2816 21.0735 18.994 21.638C18.667 22.2798 18.667 23.1198 18.667 24.8V31.2C18.667 32.8802 18.667 33.7202 18.994 34.362C19.2816 34.9265 19.7405 35.3854 20.305 35.673C20.9468 36 21.7868 36 23.467 36Z" stroke="#1DCE80" stroke-width="2" stroke-linecap="round" stroke-linejoin="round"/>
</svg>
