<svg width="57" height="56" viewBox="0 0 57 56" fill="none" xmlns="http://www.w3.org/2000/svg">
<rect x="4.33301" y="4" width="48" height="48" rx="20" fill="#C0F3DD"/>
<rect x="4.33301" y="4" width="48" height="48" rx="20" stroke="#ECF9F3" stroke-width="8"/>
<path d="M24.7133 24.8532C25.4093 26.3028 26.3581 27.6615 27.5596 28.8631C28.7612 30.0646 30.1199 31.0134 31.5695 31.7094C31.6942 31.7693 31.7565 31.7992 31.8354 31.8222C32.1158 31.904 32.46 31.8453 32.6975 31.6752C32.7643 31.6274 32.8214 31.5702 32.9357 31.4559C33.2853 31.1063 33.4601 30.9315 33.6359 30.8172C34.2988 30.3862 35.1534 30.3862 35.8163 30.8172C35.9921 30.9315 36.1669 31.1063 36.5165 31.4559L36.7113 31.6508C37.2428 32.1822 37.5085 32.448 37.6528 32.7333C37.9399 33.3009 37.9399 33.9712 37.6528 34.5387C37.5085 34.8241 37.2428 35.0898 36.7113 35.6213L36.5537 35.7789C36.0241 36.3085 35.7593 36.5733 35.3992 36.7756C34.9997 37 34.3792 37.1614 33.921 37.16C33.5081 37.1588 33.2259 37.0787 32.6614 36.9185C29.628 36.0575 26.7656 34.433 24.3777 32.045C21.9897 29.6571 20.3652 26.7947 19.5042 23.7613C19.344 23.1969 19.2639 22.9146 19.2627 22.5017C19.2613 22.0435 19.4227 21.423 19.6471 21.0235C19.8494 20.6634 20.1142 20.3986 20.6438 19.869L20.8014 19.7114C21.3329 19.1799 21.5986 18.9142 21.884 18.7699C22.4515 18.4828 23.1218 18.4828 23.6894 18.7699C23.9748 18.9142 24.2405 19.1799 24.7719 19.7114L24.9668 19.9062C25.3164 20.2559 25.4912 20.4307 25.6055 20.6064C26.0365 21.2693 26.0365 22.1239 25.6055 22.7868C25.4912 22.9626 25.3164 23.1374 24.9668 23.487C24.8525 23.6013 24.7953 23.6584 24.7475 23.7253C24.5775 23.9627 24.5188 24.307 24.6005 24.5873C24.6235 24.6662 24.6534 24.7285 24.7133 24.8532Z" stroke="#1DCE80" stroke-width="2" stroke-linecap="round" stroke-linejoin="round"/>
</svg>
