<svg width="56" height="57" viewBox="0 0 56 57" fill="none" xmlns="http://www.w3.org/2000/svg">
<rect x="4" y="4.5" width="48" height="48" rx="20" fill="#C0F3DD"/>
<rect x="4" y="4.5" width="48" height="48" rx="20" stroke="#ECF9F3" stroke-width="8"/>
<path d="M19.1699 24.44L27.9999 29.55L36.7699 24.47" stroke="#1DCE80" stroke-width="1.5" stroke-linecap="round" stroke-linejoin="round"/>
<path d="M28 38.61V29.54" stroke="#1DCE80" stroke-width="1.5" stroke-linecap="round" stroke-linejoin="round"/>
<path d="M25.9301 19.48L20.5901 22.44C19.3801 23.11 18.3901 24.79 18.3901 26.17V31.82C18.3901 33.2 19.3801 34.88 20.5901 35.55L25.9301 38.52C27.0701 39.15 28.9401 39.15 30.0801 38.52L35.4201 35.55C36.6301 34.88 37.6201 33.2 37.6201 31.82V26.17C37.6201 24.79 36.6301 23.11 35.4201 22.44L30.0801 19.47C28.9301 18.84 27.0701 18.84 25.9301 19.48Z" stroke="#1DCE80" stroke-width="1.5" stroke-linecap="round" stroke-linejoin="round"/>
</svg>
