<svg width="56" height="56" viewBox="0 0 56 56" fill="none" xmlns="http://www.w3.org/2000/svg">
<rect x="4" y="4" width="48" height="48" rx="20" fill="#C0F3DD"/>
<rect x="4" y="4" width="48" height="48" rx="20" stroke="#ECF9F3" stroke-width="8"/>
<path d="M33.98 26.79V30.79C33.98 31.05 33.97 31.3 33.94 31.54C33.71 34.24 32.12 35.58 29.19 35.58H28.79C28.54 35.58 28.3 35.7 28.15 35.9L26.95 37.5C26.42 38.21 25.56 38.21 25.03 37.5L23.83 35.9C23.7 35.73 23.41 35.58 23.19 35.58H22.79C19.6 35.58 18 34.79 18 30.79V26.79C18 23.86 19.35 22.27 22.04 22.04C22.28 22.01 22.53 22 22.79 22H29.19C32.38 22 33.98 23.6 33.98 26.79Z" stroke="#1DCE80" stroke-width="1.5" stroke-miterlimit="10" stroke-linecap="round" stroke-linejoin="round"/>
<path d="M37.9791 22.79V26.79C37.9791 29.73 36.6291 31.31 33.9391 31.54C33.9691 31.3 33.9791 31.05 33.9791 30.79V26.79C33.9791 23.6 32.3791 22 29.1891 22H22.7891C22.5291 22 22.2791 22.01 22.0391 22.04C22.2691 19.35 23.8591 18 26.7891 18H33.1891C36.3791 18 37.9791 19.6 37.9791 22.79Z" stroke="#1DCE80" stroke-width="1.5" stroke-miterlimit="10" stroke-linecap="round" stroke-linejoin="round"/>
<path d="M29.4955 29.25H29.5045" stroke="#1DCE80" stroke-width="2" stroke-linecap="round" stroke-linejoin="round"/>
<path d="M25.9955 29.25H26.0045" stroke="#1DCE80" stroke-width="2" stroke-linecap="round" stroke-linejoin="round"/>
<path d="M22.4955 29.25H22.5045" stroke="#1DCE80" stroke-width="2" stroke-linecap="round" stroke-linejoin="round"/>
</svg>
