<svg width="56" height="57" viewBox="0 0 56 57" fill="none" xmlns="http://www.w3.org/2000/svg">
<rect x="4" y="4.5" width="48" height="48" rx="20" fill="#C0F3DD"/>
<rect x="4" y="4.5" width="48" height="48" rx="20" stroke="#ECF9F3" stroke-width="8"/>
<path d="M28 29C30.7614 29 33 26.7614 33 24C33 21.2386 30.7614 19 28 19C25.2386 19 23 21.2386 23 24C23 26.7614 25.2386 29 28 29Z" stroke="#1DCE80" stroke-width="1.5" stroke-linecap="round" stroke-linejoin="round"/>
<path d="M35.2091 32.74L31.669 36.2801C31.529 36.4201 31.3991 36.68 31.3691 36.87L31.1791 38.22C31.1091 38.71 31.4491 39.05 31.9391 38.98L33.289 38.79C33.479 38.76 33.7491 38.63 33.8791 38.49L37.419 34.95C38.029 34.34 38.319 33.63 37.419 32.73C36.529 31.84 35.8191 32.13 35.2091 32.74Z" stroke="#1DCE80" stroke-width="1.5" stroke-miterlimit="10" stroke-linecap="round" stroke-linejoin="round"/>
<path d="M34.6992 33.25C34.9992 34.33 35.8392 35.17 36.9192 35.47" stroke="#1DCE80" stroke-width="1.5" stroke-miterlimit="10" stroke-linecap="round" stroke-linejoin="round"/>
<path d="M19.4102 39C19.4102 35.13 23.2602 32 28.0002 32C29.0402 32 30.0402 32.15 30.9702 32.43" stroke="#1DCE80" stroke-width="1.5" stroke-linecap="round" stroke-linejoin="round"/>
</svg>
