<svg width="56" height="56" viewBox="0 0 56 56" fill="none" xmlns="http://www.w3.org/2000/svg">
<rect x="4" y="4" width="48" height="48" rx="20" fill="#C0F3DD"/>
<rect x="4" y="4" width="48" height="48" rx="20" stroke="#ECF9F3" stroke-width="8"/>
<path d="M38 29V25C38 20 36 18 31 18H25C20 18 18 20 18 25V31C18 36 20 38 25 38H29" stroke="#1DCE80" stroke-width="2" stroke-linecap="round" stroke-linejoin="round"/>
<path d="M23.3301 30.49L25.7101 27.4C26.0501 26.96 26.6801 26.88 27.1201 27.22L28.9501 28.66C29.3901 29 30.0201 28.92 30.3601 28.49L32.6701 25.51" stroke="#1DCE80" stroke-width="2" stroke-linecap="round" stroke-linejoin="round"/>
<path d="M35.48 31.82L35.76 32.39C35.9 32.67 36.25 32.93 36.56 32.99L36.94 33.05C38.08 33.24 38.35 34.08 37.53 34.91L37.18 35.26C36.95 35.5 36.82 35.96 36.89 36.28L36.94 36.49C37.25 37.87 36.52 38.4 35.32 37.68L35.06 37.53C34.75 37.35 34.25 37.35 33.94 37.53L33.68 37.68C32.47 38.41 31.74 37.87 32.06 36.49L32.1099 36.28C32.1799 35.96 32.05 35.5 31.82 35.26L31.47 34.91C30.65 34.08 30.92 33.24 32.06 33.05L32.44 32.99C32.74 32.94 33.1 32.67 33.24 32.39L33.52 31.82C34.06 30.73 34.94 30.73 35.48 31.82Z" stroke="#1DCE80" stroke-width="2" stroke-linecap="round" stroke-linejoin="round"/>
</svg>
