<svg width="56" height="56" viewBox="0 0 56 56" fill="none" xmlns="http://www.w3.org/2000/svg">
<rect x="4" y="4" width="48" height="48" rx="20" fill="#C0F3DD"/>
<rect x="4" y="4" width="48" height="48" rx="20" stroke="#ECF9F3" stroke-width="8"/>
<path d="M26.7499 18.4499C27.4399 17.8599 28.5699 17.8599 29.2699 18.4499L30.8499 19.8101C31.1499 20.0701 31.7099 20.28 32.1099 20.28H33.8099C34.8699 20.28 35.7399 21.15 35.7399 22.21V23.91C35.7399 24.3 35.9499 24.87 36.2099 25.17L37.5699 26.75C38.1599 27.44 38.1599 28.57 37.5699 29.27L36.2099 30.85C35.9499 31.15 35.7399 31.71 35.7399 32.11V33.8101C35.7399 34.8701 34.8699 35.74 33.8099 35.74H32.1099C31.7199 35.74 31.1499 35.95 30.8499 36.21L29.2699 37.5699C28.5799 38.1599 27.4499 38.1599 26.7499 37.5699L25.1699 36.21C24.8699 35.95 24.3099 35.74 23.9099 35.74H22.1799C21.1199 35.74 20.2499 34.8701 20.2499 33.8101V32.1C20.2499 31.71 20.0399 31.15 19.7899 30.85L18.4399 29.26C17.8599 28.57 17.8599 27.45 18.4399 26.76L19.7899 25.17C20.0399 24.87 20.2499 24.31 20.2499 23.92V22.21C20.2499 21.15 21.1199 20.28 22.1799 20.28H23.9099C24.2999 20.28 24.8699 20.0701 25.1699 19.8101L26.7499 18.4499Z" stroke="#1DCE80" stroke-width="2" stroke-linecap="round" stroke-linejoin="round"/>
<path d="M25.8901 30.82L27.3401 31.94C27.5301 32.13 27.9501 32.22 28.2301 32.22H30.0001C30.5601 32.22 31.1701 31.8 31.3101 31.24L32.4301 27.82C32.6601 27.17 32.2401 26.6 31.5401 26.6H29.6701C29.3901 26.6 29.1601 26.3701 29.2001 26.0401L29.4301 24.5401C29.5201 24.1201 29.2401 23.65 28.8201 23.51C28.4501 23.37 27.9801 23.56 27.7901 23.84L25.8701 26.69" stroke="#1DCE80" stroke-width="2" stroke-miterlimit="10"/>
<path d="M23.5 30.8199V26.24C23.5 25.58 23.78 25.35 24.44 25.35H24.91C25.56 25.35 25.85 25.58 25.85 26.24V30.8199C25.85 31.4699 25.57 31.71 24.91 31.71H24.44C23.78 31.71 23.5 31.4799 23.5 30.8199Z" stroke="#1DCE80" stroke-width="2" stroke-linecap="round" stroke-linejoin="round"/>
</svg>
