<svg width="446" height="619" viewBox="0 0 446 619" fill="none" xmlns="http://www.w3.org/2000/svg">
<g opacity="0.15">
<circle cx="136.187" cy="309.343" r="308.343" stroke="white" stroke-width="2"/>
<path d="M396.076 309.342C396.076 452.873 279.589 569.23 135.893 569.23C-7.80392 569.23 -124.291 452.873 -124.291 309.342C-124.291 165.811 -7.80392 49.4541 135.893 49.4541C279.589 49.4541 396.076 165.811 396.076 309.342Z" stroke="white" stroke-width="2"/>
<path d="M354.118 309.344C354.118 430.032 256.412 527.868 135.889 527.868C15.3658 527.868 -82.3398 430.032 -82.3398 309.344C-82.3398 188.655 15.3658 90.8193 135.889 90.8193C256.412 90.8193 354.118 188.655 354.118 309.344Z" stroke="white" stroke-width="2"/>
<circle cx="136.187" cy="309.933" r="185.433" stroke="white" stroke-width="2"/>
</g>
</svg>
