<svg width="347" height="599" viewBox="0 0 347 599" fill="none" xmlns="http://www.w3.org/2000/svg">
<g opacity="0.15">
<circle cx="300.186" cy="299.499" r="298.499" stroke="white" stroke-width="2"/>
<path d="M551.773 299.498C551.773 438.444 439.007 551.084 299.901 551.084C160.795 551.084 48.0293 438.444 48.0293 299.498C48.0293 160.552 160.795 47.9126 299.901 47.9126C439.007 47.9126 551.773 160.552 551.773 299.498Z" stroke="white" stroke-width="2"/>
<path d="M511.151 299.499C511.151 416.33 416.569 511.038 299.899 511.038C183.229 511.038 88.6465 416.33 88.6465 299.499C88.6465 182.669 183.229 87.9609 299.899 87.9609C416.569 87.9609 511.151 182.669 511.151 299.499Z" stroke="white" stroke-width="2"/>
<circle cx="300.186" cy="300.07" r="179.5" stroke="white" stroke-width="2"/>
</g>
</svg>
