<svg width="16" height="16" viewBox="0 0 16 16" fill="none" xmlns="http://www.w3.org/2000/svg">
<g id="vuesax/linear/smart-car">
<g id="smart-car">
<g id="Group">
<path id="Vector" d="M8.09342 5.08002H4.58009C3.34009 5.08002 3.06009 5.70003 2.90676 6.4667L2.34009 9.16669H10.3401L9.77343 6.4667C9.60676 5.70003 9.33342 5.08002 8.09342 5.08002Z" stroke="#1DCE80" stroke-width="1.3" stroke-linecap="round" stroke-linejoin="round"/>
<g id="Group_2">
<path id="Vector_2" d="M11.3267 13.5734C11.38 14.16 10.9133 14.6667 10.3133 14.6667H9.37333C8.83333 14.6667 8.76 14.4334 8.66 14.1534L8.56 13.8534C8.42 13.4467 8.32667 13.1667 7.60667 13.1667H5.04667C4.32667 13.1667 4.22 13.4801 4.09333 13.8534L3.99334 14.1534C3.9 14.44 3.82667 14.6667 3.28 14.6667H2.34C1.74 14.6667 1.26667 14.16 1.32667 13.5734L1.60667 10.5267C1.68 9.77336 1.82 9.16003 3.13333 9.16003H9.51334C10.8267 9.16003 10.9667 9.77336 11.04 10.5267L11.3267 13.5734Z" stroke="#1DCE80" stroke-width="1.3" stroke-linecap="round" stroke-linejoin="round"/>
</g>
<path id="Vector_3" d="M2.33325 7.66669H1.83325" stroke="#1DCE80" stroke-width="1.3" stroke-linecap="round" stroke-linejoin="round"/>
<path id="Vector_4" d="M10.8333 7.66669H10.3333" stroke="#1DCE80" stroke-width="1.3" stroke-linecap="round" stroke-linejoin="round"/>
<path id="Vector_5" d="M3.33325 11.1667H4.83325" stroke="#1DCE80" stroke-width="1.3" stroke-linecap="round" stroke-linejoin="round"/>
<path id="Vector_6" d="M7.83325 11.1667H9.33325" stroke="#1DCE80" stroke-width="1.3" stroke-linecap="round" stroke-linejoin="round"/>
</g>
<path id="Vector_7" d="M12.4733 5.82665C12.66 5.39332 12.5933 4.80666 12.2467 4.29333C11.9067 3.77999 11.3867 3.49332 10.9133 3.49999" stroke="#1DCE80" stroke-width="1.3" stroke-linecap="round" stroke-linejoin="round"/>
<path id="Vector_8" d="M14.5466 6.48663C14.8266 5.47997 14.6266 4.24666 13.9133 3.17999C13.1999 2.11333 12.1333 1.45998 11.0933 1.33331" stroke="#1DCE80" stroke-width="1.3" stroke-linecap="round" stroke-linejoin="round"/>
</g>
</g>
</svg>
