<svg width="36" height="36" viewBox="0 0 36 36" fill="none" xmlns="http://www.w3.org/2000/svg">
<g filter="url(#filter0_d_100_34392)">
<rect x="2" y="1" width="32" height="32" rx="10" fill="white" shape-rendering="crispEdges"/>
<rect x="2.75" y="1.75" width="30.5" height="30.5" rx="9.25" stroke="#84E5BB" stroke-width="1.5" shape-rendering="crispEdges"/>
<path d="M17.9999 17.9533C19.1487 17.9533 20.0799 17.0221 20.0799 15.8733C20.0799 14.7246 19.1487 13.7933 17.9999 13.7933C16.8512 13.7933 15.9199 14.7246 15.9199 15.8733C15.9199 17.0221 16.8512 17.9533 17.9999 17.9533Z" stroke="#1DCE80" stroke-width="1.3"/>
<path d="M12.4133 14.66C13.7266 8.88668 22.28 8.89335 23.5866 14.6667C24.3533 18.0533 22.2466 20.92 20.4 22.6933C19.06 23.9867 16.94 23.9867 15.5933 22.6933C13.7533 20.92 11.6466 18.0467 12.4133 14.66Z" stroke="#1DCE80" stroke-width="1.3"/>
</g>
<defs>
<filter id="filter0_d_100_34392" x="0" y="0" width="36" height="36" filterUnits="userSpaceOnUse" color-interpolation-filters="sRGB">
<feFlood flood-opacity="0" result="BackgroundImageFix"/>
<feColorMatrix in="SourceAlpha" type="matrix" values="0 0 0 0 0 0 0 0 0 0 0 0 0 0 0 0 0 0 127 0" result="hardAlpha"/>
<feOffset dy="1"/>
<feGaussianBlur stdDeviation="1"/>
<feComposite in2="hardAlpha" operator="out"/>
<feColorMatrix type="matrix" values="0 0 0 0 0.0627451 0 0 0 0 0.0941176 0 0 0 0 0.156863 0 0 0 0.05 0"/>
<feBlend mode="normal" in2="BackgroundImageFix" result="effect1_dropShadow_100_34392"/>
<feBlend mode="normal" in="SourceGraphic" in2="effect1_dropShadow_100_34392" result="shape"/>
</filter>
</defs>
</svg>
