<svg width="36" height="36" viewBox="0 0 36 36" fill="none" xmlns="http://www.w3.org/2000/svg">
<g filter="url(#filter0_d_233_4145)">
<rect x="2" y="1" width="32" height="32" rx="10" fill="white" shape-rendering="crispEdges"/>
<rect x="2.75" y="1.75" width="30.5" height="30.5" rx="9.25" stroke="#84E5BB" stroke-width="1.5" shape-rendering="crispEdges"/>
<path d="M11.38 12.0667C11.9133 9.76 15.3866 9.76 15.9133 12.0667C16.2266 13.42 15.3666 14.5667 14.62 15.28C14.0733 15.8 13.2133 15.7933 12.6666 15.28C11.9266 14.5667 11.0666 13.42 11.38 12.0667Z" stroke="#1DCE80" stroke-width="1.3"/>
<path d="M20.0467 20.0667C20.58 17.76 24.0733 17.76 24.6067 20.0667C24.92 21.42 24.06 22.5667 23.3067 23.28C22.76 23.8 21.8933 23.7933 21.3467 23.28C20.5933 22.5667 19.7333 21.42 20.0467 20.0667Z" stroke="#1DCE80" stroke-width="1.3"/>
<path d="M17.9999 12.3333H19.7865C21.0199 12.3333 21.5932 13.86 20.6665 14.6733L15.3399 19.3333C14.4132 20.14 14.9865 21.6667 16.2132 21.6667H17.9999" stroke="#1DCE80" stroke-width="1.3" stroke-linecap="round" stroke-linejoin="round"/>
<path d="M13.6575 12.6667H13.6652" stroke="#1DCE80" stroke-width="1.3" stroke-linecap="round" stroke-linejoin="round"/>
<path d="M22.3242 20.6667H22.3319" stroke="#1DCE80" stroke-width="1.3" stroke-linecap="round" stroke-linejoin="round"/>
</g>
<defs>
<filter id="filter0_d_233_4145" x="0" y="0" width="36" height="36" filterUnits="userSpaceOnUse" color-interpolation-filters="sRGB">
<feFlood flood-opacity="0" result="BackgroundImageFix"/>
<feColorMatrix in="SourceAlpha" type="matrix" values="0 0 0 0 0 0 0 0 0 0 0 0 0 0 0 0 0 0 127 0" result="hardAlpha"/>
<feOffset dy="1"/>
<feGaussianBlur stdDeviation="1"/>
<feComposite in2="hardAlpha" operator="out"/>
<feColorMatrix type="matrix" values="0 0 0 0 0.0627451 0 0 0 0 0.0941176 0 0 0 0 0.156863 0 0 0 0.05 0"/>
<feBlend mode="normal" in2="BackgroundImageFix" result="effect1_dropShadow_233_4145"/>
<feBlend mode="normal" in="SourceGraphic" in2="effect1_dropShadow_233_4145" result="shape"/>
</filter>
</defs>
</svg>
