<svg width="36" height="36" viewBox="0 0 36 36" fill="none" xmlns="http://www.w3.org/2000/svg">
<g filter="url(#filter0_d_100_34396)">
<rect x="2" y="1" width="32" height="32" rx="10" fill="white" shape-rendering="crispEdges"/>
<rect x="2.75" y="1.75" width="30.5" height="30.5" rx="9.25" stroke="#84E5BB" stroke-width="1.5" shape-rendering="crispEdges"/>
<path d="M24.5999 18.3067C24.7799 19.42 24.4665 20.6133 23.5132 21.4533C22.8532 22.06 21.9865 22.3933 21.0865 22.3867H13.6932C10.5799 22.16 10.5732 17.6267 13.6932 17.4H13.7265C12.2665 13.3133 16.0599 10.9133 18.9199 11.8333" stroke="#1DCE80" stroke-width="1.3" stroke-miterlimit="10" stroke-linecap="round" stroke-linejoin="round"/>
<path d="M14.8399 17.6733C14.4932 17.5 14.1132 17.4067 13.7266 17.4" stroke="#1DCE80" stroke-width="1.3" stroke-miterlimit="10" stroke-linecap="round" stroke-linejoin="round"/>
<path d="M24.6466 14.6667C24.6466 15.4 24.3066 16.06 23.7666 16.4867C23.3733 16.8067 22.86 17 22.3133 17C21.0266 17 19.98 15.9533 19.98 14.6667C19.98 14.0267 20.24 13.4467 20.6666 13.0267V13.02C21.0866 12.5933 21.6733 12.3333 22.3133 12.3333C23.6 12.3333 24.6466 13.38 24.6466 14.6667Z" stroke="#1DCE80" stroke-width="1.3" stroke-miterlimit="10" stroke-linecap="round" stroke-linejoin="round"/>
</g>
<defs>
<filter id="filter0_d_100_34396" x="0" y="0" width="36" height="36" filterUnits="userSpaceOnUse" color-interpolation-filters="sRGB">
<feFlood flood-opacity="0" result="BackgroundImageFix"/>
<feColorMatrix in="SourceAlpha" type="matrix" values="0 0 0 0 0 0 0 0 0 0 0 0 0 0 0 0 0 0 127 0" result="hardAlpha"/>
<feOffset dy="1"/>
<feGaussianBlur stdDeviation="1"/>
<feComposite in2="hardAlpha" operator="out"/>
<feColorMatrix type="matrix" values="0 0 0 0 0.0627451 0 0 0 0 0.0941176 0 0 0 0 0.156863 0 0 0 0.05 0"/>
<feBlend mode="normal" in2="BackgroundImageFix" result="effect1_dropShadow_100_34396"/>
<feBlend mode="normal" in="SourceGraphic" in2="effect1_dropShadow_100_34396" result="shape"/>
</filter>
</defs>
</svg>
