<svg width="16" height="16" viewBox="0 0 16 16" fill="none" xmlns="http://www.w3.org/2000/svg">
<g id="vuesax/linear/group">
<g id="group">
<path id="Vector" d="M9.99992 1.33331V7.99998C9.99992 8.73331 9.39992 9.33331 8.66659 9.33331H1.33325V3.99998C1.33325 2.52665 2.52659 1.33331 3.99992 1.33331H9.99992Z" stroke="#1DCE80" stroke-width="1.3" stroke-linecap="round" stroke-linejoin="round"/>
<path id="Vector_2" d="M14.6666 9.33331V11.3333C14.6666 12.44 13.7733 13.3333 12.6666 13.3333H11.9999C11.9999 12.6 11.3999 12 10.6666 12C9.93325 12 9.33325 12.6 9.33325 13.3333H6.66659C6.66659 12.6 6.06659 12 5.33325 12C4.59992 12 3.99992 12.6 3.99992 13.3333H3.33325C2.22659 13.3333 1.33325 12.44 1.33325 11.3333V9.33331H8.66659C9.39992 9.33331 9.99992 8.73331 9.99992 7.99998V3.33331H11.2266C11.7066 3.33331 12.1466 3.59332 12.3866 4.00665L13.5266 5.99998H12.6666C12.2999 5.99998 11.9999 6.29998 11.9999 6.66665V8.66665C11.9999 9.03331 12.2999 9.33331 12.6666 9.33331H14.6666Z" stroke="#1DCE80" stroke-width="1.3" stroke-linecap="round" stroke-linejoin="round"/>
<path id="Vector_3" d="M5.33333 14.6667C6.06971 14.6667 6.66667 14.0697 6.66667 13.3333C6.66667 12.597 6.06971 12 5.33333 12C4.59695 12 4 12.597 4 13.3333C4 14.0697 4.59695 14.6667 5.33333 14.6667Z" stroke="#1DCE80" stroke-width="1.3" stroke-linecap="round" stroke-linejoin="round"/>
<path id="Vector_4" d="M10.6666 14.6667C11.403 14.6667 11.9999 14.0697 11.9999 13.3333C11.9999 12.597 11.403 12 10.6666 12C9.93021 12 9.33325 12.597 9.33325 13.3333C9.33325 14.0697 9.93021 14.6667 10.6666 14.6667Z" stroke="#1DCE80" stroke-width="1.3" stroke-linecap="round" stroke-linejoin="round"/>
<path id="Vector_5" d="M14.6667 8V9.33333H12.6667C12.3 9.33333 12 9.03333 12 8.66667V6.66667C12 6.3 12.3 6 12.6667 6H13.5267L14.6667 8Z" stroke="#1DCE80" stroke-width="1.3" stroke-linecap="round" stroke-linejoin="round"/>
</g>
</g>
</svg>
