<svg width="16" height="16" viewBox="0 0 16 16" fill="none" xmlns="http://www.w3.org/2000/svg">
<g id="vuesax/linear/cloud-notif">
<g id="cloud-notif">
<path id="Vector" d="M14.5999 9.30669C14.7799 10.42 14.4665 11.6134 13.5132 12.4534C12.8532 13.06 11.9865 13.3934 11.0865 13.3867H3.69321C0.57988 13.16 0.573214 8.62669 3.69321 8.40003H3.72655C2.26655 4.31336 6.05988 1.91336 8.91988 2.83336" stroke="#1DCE80" stroke-width="1.3" stroke-miterlimit="10" stroke-linecap="round" stroke-linejoin="round"/>
<path id="Vector_2" d="M4.8399 8.67336C4.49323 8.50002 4.11323 8.40669 3.72656 8.40002" stroke="#1DCE80" stroke-width="1.3" stroke-miterlimit="10" stroke-linecap="round" stroke-linejoin="round"/>
<path id="Vector_3" d="M14.6466 5.66665C14.6466 6.39998 14.3066 7.05998 13.7666 7.48665C13.3733 7.80665 12.86 7.99998 12.3133 7.99998C11.0266 7.99998 9.97998 6.95331 9.97998 5.66665C9.97998 5.02665 10.24 4.44665 10.6666 4.02665V4.01998C11.0866 3.59331 11.6733 3.33331 12.3133 3.33331C13.6 3.33331 14.6466 4.37998 14.6466 5.66665Z" stroke="#1DCE80" stroke-width="1.3" stroke-miterlimit="10" stroke-linecap="round" stroke-linejoin="round"/>
</g>
</g>
</svg>
