<svg width="16" height="16" viewBox="0 0 16 16" fill="none" xmlns="http://www.w3.org/2000/svg">
<g id="vuesax/linear/driving">
<g id="driving">
<g id="Group">
<path id="Vector" d="M9.69997 1.33331H6.29997C5.09997 1.33331 4.83331 1.93332 4.67997 2.67332L4.1333 5.28664H11.8666L11.32 2.67332C11.1666 1.93332 10.9 1.33331 9.69997 1.33331Z" stroke="#1DCE80" stroke-width="1.3" stroke-linecap="round" stroke-linejoin="round"/>
<g id="Group_2">
<path id="Vector_2" d="M12.8266 9.54665C12.88 10.1133 12.4266 10.6 11.8466 10.6H10.94C10.42 10.6 10.3466 10.38 10.2533 10.1L10.1533 9.81329C10.02 9.41996 9.93329 9.1533 9.23329 9.1533H6.75995C6.06662 9.1533 5.95995 9.45329 5.83995 9.81329L5.73996 10.1C5.64662 10.3733 5.57329 10.6 5.05329 10.6H4.14662C3.56662 10.6 3.11329 10.1133 3.16662 9.54665L3.43996 6.6C3.50662 5.87333 3.64662 5.27997 4.91328 5.27997H11.08C12.3466 5.27997 12.4866 5.87333 12.5533 6.6L12.8266 9.54665Z" stroke="#1DCE80" stroke-width="1.3" stroke-linecap="round" stroke-linejoin="round"/>
</g>
<path id="Vector_3" d="M4.13339 3.83331H3.64673" stroke="#1DCE80" stroke-width="1.3" stroke-linecap="round" stroke-linejoin="round"/>
<path id="Vector_4" d="M12.3534 3.83331H11.8667" stroke="#1DCE80" stroke-width="1.3" stroke-linecap="round" stroke-linejoin="round"/>
<path id="Vector_5" d="M5.09985 7.21997H6.54653" stroke="#1DCE80" stroke-width="1.3" stroke-linecap="round" stroke-linejoin="round"/>
<path id="Vector_6" d="M9.45337 7.21997H10.9" stroke="#1DCE80" stroke-width="1.3" stroke-linecap="round" stroke-linejoin="round"/>
</g>
<path id="Vector_7" d="M8 11.3333V12" stroke="#1DCE80" stroke-width="1.3" stroke-linecap="round" stroke-linejoin="round"/>
<path id="Vector_8" d="M8 14V14.6667" stroke="#1DCE80" stroke-width="1.3" stroke-linecap="round" stroke-linejoin="round"/>
<path id="Vector_9" d="M1.99992 12L1.33325 14.6667" stroke="#1DCE80" stroke-width="1.3" stroke-linecap="round" stroke-linejoin="round"/>
<path id="Vector_10" d="M14 12L14.6667 14.6667" stroke="#1DCE80" stroke-width="1.3" stroke-linecap="round" stroke-linejoin="round"/>
</g>
</g>
</svg>
