<svg width="16" height="16" viewBox="0 0 16 16" fill="none" xmlns="http://www.w3.org/2000/svg">
<path d="M1.37996 3.06667C1.91329 0.760003 5.38662 0.760003 5.91329 3.06667C6.22662 4.42 5.36662 5.56667 4.61996 6.28C4.07329 6.8 3.21329 6.79334 2.66662 6.28C1.92662 5.56667 1.06662 4.42 1.37996 3.06667Z" stroke="#1DCE80" stroke-width="1.3"/>
<path d="M10.0467 11.0667C10.58 8.76 14.0733 8.76 14.6067 11.0667C14.92 12.42 14.06 13.5667 13.3067 14.28C12.76 14.8 11.8933 14.7933 11.3467 14.28C10.5933 13.5667 9.73333 12.42 10.0467 11.0667Z" stroke="#1DCE80" stroke-width="1.3"/>
<path d="M7.99988 3.33331H9.78655C11.0199 3.33331 11.5932 4.85998 10.6665 5.67331L5.33988 10.3333C4.41322 11.14 4.98655 12.6666 6.21322 12.6666H7.99988" stroke="#1DCE80" stroke-width="1.3" stroke-linecap="round" stroke-linejoin="round"/>
<path d="M3.65748 3.66665H3.66518" stroke="#1DCE80" stroke-width="1.3" stroke-linecap="round" stroke-linejoin="round"/>
<path d="M12.3242 11.6666H12.3319" stroke="#1DCE80" stroke-width="1.3" stroke-linecap="round" stroke-linejoin="round"/>
</svg>
