<svg width="56" height="56" viewBox="0 0 56 56" fill="none" xmlns="http://www.w3.org/2000/svg">
<rect x="4" y="4" width="48" height="48" rx="20" fill="#C0F3DD"/>
<rect x="4" y="4" width="48" height="48" rx="20" stroke="#ECF9F3" stroke-width="8"/>
<path d="M28.0001 23.89L26.9301 25.75C26.6901 26.16 26.8901 26.5 27.3601 26.5H28.6301C29.1101 26.5 29.3001 26.84 29.0601 27.25L28.0001 29.11" stroke="#1DCE80" stroke-width="1.5" stroke-linecap="round" stroke-linejoin="round"/>
<path d="M24.3001 34.04V32.88C22.0001 31.49 20.1101 28.78 20.1101 25.9C20.1101 20.95 24.6601 17.07 29.8001 18.19C32.0601 18.69 34.0401 20.19 35.0701 22.26C37.1601 26.46 34.9601 30.92 31.7301 32.87V34.03C31.7301 34.32 31.8401 34.99 30.7701 34.99H25.2601C24.1601 35 24.3001 34.57 24.3001 34.04Z" stroke="#1DCE80" stroke-width="1.5" stroke-linecap="round" stroke-linejoin="round"/>
<path d="M24.5 38C26.79 37.35 29.21 37.35 31.5 38" stroke="#1DCE80" stroke-width="1.5" stroke-linecap="round" stroke-linejoin="round"/>
</svg>
