<svg width="160" height="57" viewBox="0 0 160 57" fill="none" xmlns="http://www.w3.org/2000/svg">
<g id="app store">
<path id="Path 3" d="M158.192 50.5958C158.192 52.0662 157.711 53.4764 156.857 54.5156C156.003 55.5548 154.844 56.1379 153.636 56.1364L4.56128 56.1364C2.04524 56.1396 0.00327763 53.6592 0 50.5958V6.41146C0.00327722 3.34688 2.04428 0.864442 4.56128 0.863647H153.635C156.151 0.863647 158.191 3.34772 158.19 6.41146L158.192 50.5958L158.192 50.5958Z" fill="black"/>
<path id="Path 4" fill-rule="evenodd" clip-rule="evenodd" d="M32.4868 12.1351C32.6841 13.9276 31.9736 15.6939 30.9351 16.9922C29.8515 18.2703 28.118 19.2478 26.4297 19.1219C26.2087 17.3972 27.0642 15.5632 28.0218 14.4443C29.1042 13.1745 30.9838 12.2016 32.4868 12.1351ZM38.0151 22.475C37.8267 22.5874 34.7042 24.4505 34.7384 28.2503H34.7383C34.7788 32.8377 38.7543 34.3557 38.8018 34.3724C38.778 34.4793 38.1792 36.5627 36.6881 38.6759C35.4429 40.5372 34.1384 42.3581 32.0662 42.3902C31.0811 42.4129 30.4159 42.1299 29.7228 41.8351C28.9998 41.5276 28.2464 41.2071 27.0677 41.2071C25.8186 41.2071 25.0318 41.538 24.2732 41.857C23.6168 42.133 22.9815 42.4002 22.0858 42.4365C20.1123 42.509 18.6046 40.4505 17.3143 38.6046C14.7348 34.838 12.7268 27.9902 15.4192 23.3303C16.7238 21.045 19.1024 19.5732 21.645 19.534C22.7647 19.5112 23.8386 19.9425 24.78 20.3207C25.4999 20.6099 26.1423 20.868 26.6685 20.868C27.1307 20.868 27.7551 20.6202 28.4828 20.3315C29.6297 19.8764 31.0333 19.3195 32.4631 19.4699C33.4409 19.4984 36.2235 19.8559 38.0188 22.4727L38.0151 22.475Z" fill="white"/>
<g id="Group 2">
<path id="Path 6" fill-rule="evenodd" clip-rule="evenodd" d="M102.142 41.0212C103.077 40.1766 103.547 39.0826 103.547 37.7368C103.547 36.6452 103.226 35.7294 102.581 34.9953C101.941 34.2612 100.94 33.6222 99.5787 33.0734C98.469 32.6363 97.7015 32.2289 97.2808 31.8547C96.7961 31.4485 96.5525 30.9306 96.5525 30.307C96.5525 29.7416 96.7664 29.2652 97.1882 28.8745C97.6896 28.4373 98.3906 28.2176 99.2841 28.2176C100.415 28.2176 101.426 28.4599 102.322 28.9445L102.958 26.8801C102.006 26.38 100.807 26.1294 99.3685 26.1294C97.7573 26.1294 96.4623 26.5439 95.4856 27.373C94.5089 28.2033 94.0194 29.2652 94.0194 30.5624C94.0194 32.5484 95.4048 34.0581 98.1732 35.0903C99.1914 35.4645 99.9162 35.8719 100.355 36.3091C100.791 36.7474 101.013 37.2855 101.013 37.9281C101.013 38.6455 100.744 39.2204 100.213 39.6504C99.6833 40.0792 98.9407 40.2954 97.9855 40.2954C96.6571 40.2954 95.4369 39.9676 94.326 39.3095L93.7402 41.4203C94.7692 42.0772 96.1331 42.405 97.8346 42.405C99.6762 42.405 101.113 41.9429 102.142 41.0212ZM62.7043 42.1711H60.006L58.5279 37.5279H53.3904L51.9825 42.1711H49.3555L54.4467 26.3635H57.5905L62.7043 42.1711ZM58.0824 35.5799L56.7457 31.4522C56.6043 31.0306 56.3382 30.0375 55.9484 28.4744H55.9009C55.7441 29.1467 55.4934 30.1397 55.15 31.4522L53.8359 35.5799H58.0824ZM74.1919 40.9273C75.2458 39.8024 75.7722 38.2701 75.7722 36.3316C75.7722 34.5962 75.3219 33.1969 74.4248 32.1314C73.5266 31.0683 72.4038 30.5374 71.0588 30.5374C69.3384 30.5374 68.0564 31.218 67.2116 32.5792H67.1641L67.0227 30.7725H64.7949C64.8567 32.053 64.8888 33.3014 64.8888 34.519V46.7928H67.4219V40.8121C68.0813 41.8906 69.1673 42.4287 70.6774 42.4287C72.0758 42.4287 73.2486 41.9286 74.1919 40.9273ZM73.1907 36.4244C73.1907 35.315 72.9412 34.4003 72.4398 33.6793C71.8921 32.9298 71.1566 32.5544 70.2346 32.5544C69.6097 32.5544 69.0417 32.7635 68.5344 33.1757C68.0259 33.5914 67.6932 34.1343 67.5375 34.8066C67.4681 35.058 67.4286 35.3168 67.4199 35.5775V37.4792C67.4199 38.3071 67.6742 39.0067 68.1827 39.5793C68.6912 40.1494 69.3518 40.4357 70.1645 40.4357C71.1186 40.4357 71.8612 40.0663 72.3923 39.3334C72.9246 38.5981 73.1907 37.6288 73.1907 36.4244ZM87.3043 40.9274C88.3582 39.8025 88.8845 38.2702 88.8845 36.3317C88.8845 34.5963 88.433 33.197 87.5372 32.1315C86.6365 31.0684 85.5137 30.5375 84.17 30.5375C82.4483 30.5375 81.1663 31.2181 80.3228 32.5793H80.2752L80.1339 30.7727H77.9061C77.9679 32.0531 78 33.3015 78 34.5191V46.7929H80.5331V40.8122C81.1925 41.8907 82.2784 42.4288 83.7886 42.4288C85.1882 42.4288 86.3597 41.9287 87.3043 40.9274ZM86.3033 36.4244C86.3033 35.315 86.0525 34.4003 85.5512 33.6793C85.0034 32.9298 84.2703 32.5544 83.3483 32.5544C82.7234 32.5544 82.1555 32.7635 81.6457 33.1757C81.1372 33.5914 80.8057 34.1343 80.6501 34.8066C80.5729 35.1202 80.5312 35.3755 80.5312 35.5775V37.4792C80.5312 38.3071 80.7867 39.0067 81.2929 39.5793C81.8014 40.1482 82.462 40.4357 83.2771 40.4357C84.2323 40.4357 84.9749 40.0663 85.5048 39.3334C86.0371 38.5981 86.3033 37.6288 86.3033 36.4244ZM111.944 32.6732H109.151V38.2072C109.151 39.6148 109.643 40.3168 110.629 40.3168C111.082 40.3168 111.458 40.2788 111.755 40.1992L111.825 42.1223C111.326 42.3088 110.669 42.4026 109.855 42.4026C108.854 42.4026 108.073 42.0974 107.508 41.4868C106.946 40.8763 106.663 39.8536 106.663 38.4139V32.6684H105V30.7679H106.663V28.6809L109.151 27.9302V30.7679H111.944L111.944 32.6732ZM123.015 40.6934C124.016 39.5685 124.517 38.1301 124.517 36.378C124.517 34.6723 124.033 33.2825 123.061 32.2064C122.044 31.0969 120.701 30.541 119.028 30.541C117.292 30.541 115.911 31.1041 114.886 32.2301C113.863 33.355 113.35 34.8018 113.35 36.568C113.35 38.256 113.846 39.6552 114.84 40.7658C115.833 41.8741 117.165 42.4288 118.84 42.4288C120.576 42.4288 121.968 41.8515 123.015 40.6934ZM121.891 36.4363C121.891 35.3922 121.665 34.4966 121.213 33.7471C120.681 32.842 119.921 32.3894 118.936 32.3894C117.921 32.3894 117.143 32.842 116.613 33.7471C116.159 34.4966 115.934 35.4077 115.934 36.4838C115.934 37.5291 116.159 38.4271 116.613 39.1743C117.161 40.0794 117.925 40.532 118.915 40.532C119.883 40.532 120.642 40.0699 121.191 39.1517C121.657 38.3844 121.891 37.4828 121.891 36.4363ZM131.954 32.9296C132.222 32.9287 132.489 32.9522 132.753 32.9997L132.75 30.5837C132.563 30.554 132.351 30.5374 132.117 30.5374C131.457 30.5383 130.815 30.7524 130.286 31.1479C129.709 31.6005 129.288 32.2051 129.02 32.9546H128.949L128.857 30.7737H126.65C126.702 31.9692 126.726 33.1656 126.724 34.3621V42.1709H129.257V36.1902C129.257 35.2839 129.469 34.5332 129.889 33.9393C130.374 33.2646 131.063 32.9296 131.954 32.9296ZM144.082 35.9327C144.088 36.3177 144.057 36.7023 143.989 37.0813H136.39C136.418 38.2074 136.786 39.0697 137.492 39.6637C138.133 40.1934 138.961 40.4595 139.978 40.4595C141.103 40.4595 142.13 40.2813 143.053 39.9214L143.45 41.6782C142.371 42.1486 141.097 42.3826 139.627 42.3826C137.859 42.3826 136.472 41.8623 135.462 40.8242C134.454 39.7848 133.949 38.3879 133.949 36.6383C133.949 34.9207 134.419 33.4893 135.358 32.3478C136.342 31.1291 137.672 30.5198 139.345 30.5198C140.988 30.5198 142.232 31.1291 143.077 32.3478C143.745 33.3135 144.082 34.5109 144.082 35.9327ZM141.176 33.3289C141.519 33.8765 141.686 34.5238 141.668 35.2757L136.393 35.2734C136.47 34.5096 136.72 33.8515 137.142 33.304C137.656 32.615 138.33 32.2717 139.159 32.2717C140.063 32.2717 140.738 32.6233 141.176 33.3289Z" fill="white"/>
</g>
<g id="Group 3">
<path id="Path 7" fill-rule="evenodd" clip-rule="evenodd" d="M83.4085 20.7063H82.1621V12.5341H83.4085V20.7063ZM50.8379 20.6824C51.3452 20.7407 51.9548 20.7751 52.6593 20.7751C55.6451 20.7751 57.2254 19.3236 57.2254 16.6367C57.2254 14.3074 55.8875 12.8784 52.9825 12.8784C52.2645 12.8764 51.5474 12.9304 50.8379 13.04V20.6824ZM52.082 13.9393C52.3589 13.8823 52.6927 13.8585 53.0848 13.8585C54.93 13.8585 55.9102 14.8622 55.9102 16.6713C55.9102 18.7001 54.8266 19.7834 52.9232 19.7834C52.5193 19.7834 52.2317 19.7727 52.082 19.749V13.9393ZM61.3955 20.8335C59.7583 20.8335 58.6973 19.6112 58.6973 17.9518C58.6973 16.2223 59.7809 14.9894 61.4882 14.9894C63.1017 14.9894 64.1865 16.1534 64.1865 17.8604C64.1865 19.6112 63.0684 20.8335 61.3955 20.8335ZM59.9668 17.9161C59.9668 16.7402 60.543 15.8992 61.4425 15.8992C62.3181 15.8992 62.8944 16.7521 62.8944 17.8924C62.8944 19.0113 62.3062 19.9105 61.4306 19.9105C60.5549 19.9105 59.9668 19.0695 59.9668 17.9161ZM73.5209 15.1046L71.7684 20.7064H70.6266L69.9006 18.2737C69.7201 17.6787 69.5698 17.0749 69.4503 16.4647L69.4266 16.4647C69.3351 17.0752 69.1616 17.6869 68.9775 18.2737L68.2052 20.7064H67.0515L65.4023 15.1046H66.682L67.3164 17.7677C67.4661 18.402 67.5921 19.0007 67.6966 19.5661H67.7204C67.8119 19.0945 67.9616 18.5054 68.1814 17.7796L68.9775 15.1058H69.9921L70.7537 17.7226C70.9379 18.3569 71.0876 18.9793 71.204 19.5673H71.2373C71.3181 18.9912 71.4452 18.3795 71.6175 17.7226L72.2983 15.1058L73.5209 15.1046ZM78.7291 20.7064H79.9743L79.9755 17.352C79.9755 15.8886 79.2032 14.9894 78.0269 14.9894C77.2653 14.9894 76.5857 15.3695 76.2506 15.9681H76.2162L76.158 15.1034H75.0625C75.097 15.6795 75.1088 16.2105 75.1088 16.7058V20.7064H76.354V17.3745C76.354 16.6369 76.8613 16.0026 77.5992 16.0026C78.3489 16.0026 78.7291 16.4991 78.7291 17.4898V20.7064ZM85.248 17.9518C85.248 19.6112 86.3102 20.8335 87.9463 20.8335C89.618 20.8335 90.7373 19.6112 90.7361 17.8604C90.7361 16.1534 89.6525 14.9894 88.0378 14.9894C86.3316 14.9894 85.248 16.2223 85.248 17.9518ZM87.9952 15.8993C87.0958 15.8993 86.5195 16.7403 86.5195 17.9162C86.5195 19.0696 87.1089 19.9106 87.9821 19.9106C88.859 19.9106 89.4459 19.0114 89.4459 17.8925C89.4471 16.7522 88.8721 15.8993 87.9952 15.8993ZM95.5566 20.0614L95.6468 20.7064H95.6469L96.7696 20.7076C96.7138 20.3738 96.6888 19.9355 96.6888 19.3701V17.3068C96.6888 15.7615 95.9498 14.9894 94.4861 14.9894C93.7268 14.9894 93.0805 15.1509 92.5624 15.474L92.8155 16.2924C93.2421 16.0157 93.7268 15.8767 94.2793 15.8767C95.0516 15.8767 95.4425 16.2461 95.4425 16.9837V17.0871C93.3668 17.0871 92.168 17.8022 92.168 19.1848C92.168 20.1303 92.8808 20.8335 93.8848 20.8335C94.5882 20.8335 95.1431 20.5805 95.5233 20.0614H95.5566ZM95.4753 17.9161C94.0923 17.9161 93.3984 18.2511 93.3984 19.0458C93.3984 19.6337 93.7561 19.9212 94.2527 19.9212C94.886 19.9212 95.4753 19.4377 95.4753 18.7809V17.9161ZM102.677 19.8071L102.735 20.7063H103.844C103.81 20.2454 103.797 19.7382 103.797 19.1966V12.5341H102.551V15.7495H102.526C102.227 15.2411 101.695 14.9881 100.946 14.9881C99.5294 14.9881 98.4922 16.2223 98.4922 17.9743C98.4922 19.6456 99.4926 20.8334 100.844 20.8334C101.684 20.8334 102.285 20.4866 102.642 19.8071H102.677ZM102.551 17.4101C102.551 16.6261 102.032 15.9574 101.24 15.9574C100.316 15.9574 99.752 16.7758 99.752 17.928C99.752 19.0576 100.338 19.8309 101.215 19.8309C101.998 19.8309 102.551 19.1503 102.551 18.3437V17.4101ZM109.002 17.9518C109.002 19.6112 110.063 20.8335 111.699 20.8335C113.373 20.8335 114.491 19.6112 114.49 17.8604C114.49 16.1535 113.406 14.9894 111.792 14.9894C110.085 14.9894 109.002 16.2224 109.002 17.9518ZM111.746 15.8993C110.848 15.8993 110.271 16.7403 110.271 17.9162C110.271 19.0696 110.86 19.9106 111.734 19.9106C112.611 19.9106 113.198 19.0114 113.198 17.8925C113.2 16.7522 112.624 15.8993 111.746 15.8993ZM119.94 20.7063H121.187V17.3507C121.187 15.8873 120.413 14.9881 119.237 14.9881C118.476 14.9881 117.796 15.3694 117.462 15.9681H117.427L117.369 15.1033H116.274C116.308 15.6794 116.32 16.2104 116.32 16.7057V20.7063H117.566V17.3745C117.566 16.6368 118.072 16.0025 118.81 16.0025C119.56 16.0025 119.94 16.499 119.94 17.4897V20.7063ZM129.564 16.0382H128.194V18.7583C128.194 19.4508 128.434 19.7965 128.919 19.7965C129.139 19.7965 129.323 19.7727 129.472 19.7383L129.506 20.6838C129.265 20.7764 128.942 20.8228 128.54 20.8228C127.559 20.8228 126.972 20.2811 126.972 18.8628V16.0382H126.154V15.1046H126.972V14.0783L128.194 13.7089V15.1034H129.564V16.0382ZM134.911 20.7063H136.155V17.3744C136.155 15.9099 135.43 14.9881 134.245 14.9881C133.52 14.9881 132.952 15.2886 132.56 15.8992H132.535V12.5341H131.291V20.7063H132.535V17.3293C132.535 16.442 133.136 16.0037 133.781 16.0037C134.532 16.0037 134.911 16.5109 134.911 17.5134V20.7063ZM142.909 18.2047H139.173C139.196 19.2655 139.899 19.8641 140.938 19.8641C141.491 19.8641 141.999 19.7715 142.448 19.5993L142.642 20.464C142.112 20.6944 141.488 20.8096 140.762 20.8096C139.01 20.8096 137.973 19.7026 137.973 17.9862C137.973 16.2686 139.035 14.9774 140.622 14.9774C142.054 14.9774 142.952 16.0381 142.952 17.6405C142.96 17.8296 142.946 18.019 142.909 18.2047ZM140.535 15.8422C139.82 15.8422 139.255 16.4646 139.174 17.3174L140.535 15.8422ZM139.174 17.3174H141.768H139.174Z" fill="white"/>
</g>
</g>
</svg>
