<svg width="182" height="56" viewBox="0 0 182 56" fill="none" xmlns="http://www.w3.org/2000/svg">
<rect width="182" height="56" rx="8.4" fill="black"/>
<path fill-rule="evenodd" clip-rule="evenodd" d="M36.0764 28.8125C36.107 26.4374 37.3521 24.2436 39.3756 22.9996C38.0933 21.1682 36.0225 20.0488 33.788 19.9788C31.437 19.7321 29.1579 21.3856 27.9599 21.3856C26.7387 21.3856 24.8942 20.0033 22.908 20.0442C20.2947 20.1286 17.9174 21.5785 16.6459 23.8632C13.9383 28.551 15.9579 35.4405 18.5516 39.2297C19.8493 41.0852 21.3658 43.1579 23.3503 43.0844C25.2922 43.0038 26.0174 41.8461 28.3614 41.8461C30.6837 41.8461 31.3641 43.0844 33.3888 43.0376C35.4726 43.0038 36.7854 41.1739 38.0376 39.3008C38.9699 37.9787 39.6874 36.5175 40.1633 34.9713C37.6885 33.9246 36.0793 31.4996 36.0764 28.8125Z" fill="white"/>
<path fill-rule="evenodd" clip-rule="evenodd" d="M32.2521 17.4868C33.3883 16.123 33.948 14.3699 33.8125 12.6C32.0767 12.7823 30.4733 13.6119 29.3218 14.9234C28.1848 16.2175 27.6088 17.9104 27.7207 19.6294C29.4797 19.6475 31.1499 18.8578 32.2521 17.4868Z" fill="white"/>
<path d="M58.1798 18.692H60.1706C60.305 18.692 60.473 18.6836 60.6746 18.6668C60.8762 18.6416 61.0904 18.5912 61.3172 18.5156C61.544 18.4316 61.7666 18.314 61.985 18.1628C62.2118 18.0116 62.4134 17.8058 62.5898 17.5454C62.7662 17.285 62.909 16.9616 63.0182 16.5752C63.1358 16.1804 63.1946 15.7058 63.1946 15.1514C63.1946 14.6138 63.14 14.135 63.0308 13.715C62.93 13.2866 62.7578 12.9254 62.5142 12.6314C62.279 12.329 61.9724 12.1022 61.5944 11.951C61.2164 11.7914 60.7502 11.7116 60.1958 11.7116H58.1798V18.692ZM56.9828 10.7036H60.0698C61.4558 10.7036 62.5226 11.0564 63.2702 11.762C64.0178 12.4676 64.3916 13.5428 64.3916 14.9876C64.3916 15.7436 64.3076 16.4156 64.1396 17.0036C63.9716 17.5832 63.7112 18.0746 63.3584 18.4778C63.0056 18.8726 62.5562 19.175 62.0102 19.385C61.4642 19.595 60.8174 19.7 60.0698 19.7H56.9828V10.7036ZM66.7113 16.4492C66.7113 16.844 66.7617 17.1968 66.8625 17.5076C66.9717 17.81 67.1187 18.0662 67.3035 18.2762C67.4883 18.4778 67.7025 18.6332 67.9461 18.7424C68.1981 18.8516 68.4627 18.9062 68.7399 18.9062C69.0171 18.9062 69.2775 18.8516 69.5211 18.7424C69.7731 18.6332 69.9915 18.4778 70.1763 18.2762C70.3611 18.0662 70.5039 17.81 70.6047 17.5076C70.7139 17.1968 70.7685 16.844 70.7685 16.4492C70.7685 16.0544 70.7139 15.7058 70.6047 15.4034C70.5039 15.0926 70.3611 14.8322 70.1763 14.6222C69.9915 14.4122 69.7731 14.2526 69.5211 14.1434C69.2775 14.0342 69.0171 13.9796 68.7399 13.9796C68.4627 13.9796 68.1981 14.0342 67.9461 14.1434C67.7025 14.2526 67.4883 14.4122 67.3035 14.6222C67.1187 14.8322 66.9717 15.0926 66.8625 15.4034C66.7617 15.7058 66.7113 16.0544 66.7113 16.4492ZM65.5773 16.4492C65.5773 15.9704 65.6445 15.5252 65.7789 15.1136C65.9133 14.6936 66.1149 14.3324 66.3837 14.03C66.6525 13.7192 66.9843 13.4756 67.3791 13.2992C67.7739 13.1228 68.2275 13.0346 68.7399 13.0346C69.2607 13.0346 69.7143 13.1228 70.1007 13.2992C70.4955 13.4756 70.8273 13.7192 71.0961 14.03C71.3649 14.3324 71.5665 14.6936 71.7009 15.1136C71.8353 15.5252 71.9025 15.9704 71.9025 16.4492C71.9025 16.928 71.8353 17.3732 71.7009 17.7848C71.5665 18.1964 71.3649 18.5576 71.0961 18.8684C70.8273 19.1708 70.4955 19.4102 70.1007 19.5866C69.7143 19.7546 69.2607 19.8386 68.7399 19.8386C68.2275 19.8386 67.7739 19.7546 67.3791 19.5866C66.9843 19.4102 66.6525 19.1708 66.3837 18.8684C66.1149 18.5576 65.9133 18.1964 65.7789 17.7848C65.6445 17.3732 65.5773 16.928 65.5773 16.4492ZM79.8684 19.7H78.7344L77.4114 14.5214H77.3862L76.0758 19.7H74.9166L72.825 13.1858H74.0094L75.4836 18.5156H75.5088L76.8192 13.1858H77.991L79.3518 18.5156H79.377L80.8386 13.1858H81.9474L79.8684 19.7ZM83.2177 13.1858H84.2257V14.219H84.2509C84.6961 13.4294 85.4017 13.0346 86.3677 13.0346C86.7961 13.0346 87.1531 13.0934 87.4387 13.211C87.7243 13.3286 87.9553 13.4924 88.1317 13.7024C88.3081 13.9124 88.4299 14.1644 88.4971 14.4584C88.5727 14.744 88.6105 15.0632 88.6105 15.416V19.7H87.5395V15.29C87.5395 14.8868 87.4219 14.5676 87.1867 14.3324C86.9515 14.0972 86.6281 13.9796 86.2165 13.9796C85.8889 13.9796 85.6033 14.03 85.3597 14.1308C85.1245 14.2316 84.9271 14.3744 84.7675 14.5592C84.6079 14.744 84.4861 14.9624 84.4021 15.2144C84.3265 15.458 84.2887 15.7268 84.2887 16.0208V19.7H83.2177V13.1858ZM90.534 10.7036H91.605V19.7H90.534V10.7036ZM94.2974 16.4492C94.2974 16.844 94.3478 17.1968 94.4486 17.5076C94.5578 17.81 94.7048 18.0662 94.8896 18.2762C95.0744 18.4778 95.2886 18.6332 95.5322 18.7424C95.7842 18.8516 96.0488 18.9062 96.326 18.9062C96.6032 18.9062 96.8636 18.8516 97.1072 18.7424C97.3592 18.6332 97.5776 18.4778 97.7624 18.2762C97.9472 18.0662 98.09 17.81 98.1908 17.5076C98.3 17.1968 98.3546 16.844 98.3546 16.4492C98.3546 16.0544 98.3 15.7058 98.1908 15.4034C98.09 15.0926 97.9472 14.8322 97.7624 14.6222C97.5776 14.4122 97.3592 14.2526 97.1072 14.1434C96.8636 14.0342 96.6032 13.9796 96.326 13.9796C96.0488 13.9796 95.7842 14.0342 95.5322 14.1434C95.2886 14.2526 95.0744 14.4122 94.8896 14.6222C94.7048 14.8322 94.5578 15.0926 94.4486 15.4034C94.3478 15.7058 94.2974 16.0544 94.2974 16.4492ZM93.1634 16.4492C93.1634 15.9704 93.2306 15.5252 93.365 15.1136C93.4994 14.6936 93.701 14.3324 93.9698 14.03C94.2386 13.7192 94.5704 13.4756 94.9652 13.2992C95.36 13.1228 95.8136 13.0346 96.326 13.0346C96.8468 13.0346 97.3004 13.1228 97.6868 13.2992C98.0816 13.4756 98.4134 13.7192 98.6822 14.03C98.951 14.3324 99.1526 14.6936 99.287 15.1136C99.4214 15.5252 99.4886 15.9704 99.4886 16.4492C99.4886 16.928 99.4214 17.3732 99.287 17.7848C99.1526 18.1964 98.951 18.5576 98.6822 18.8684C98.4134 19.1708 98.0816 19.4102 97.6868 19.5866C97.3004 19.7546 96.8468 19.8386 96.326 19.8386C95.8136 19.8386 95.36 19.7546 94.9652 19.5866C94.5704 19.4102 94.2386 19.1708 93.9698 18.8684C93.701 18.5576 93.4994 18.1964 93.365 17.7848C93.2306 17.3732 93.1634 16.928 93.1634 16.4492ZM106.774 19.6748C106.589 19.784 106.333 19.8386 106.006 19.8386C105.728 19.8386 105.506 19.763 105.338 19.6118C105.178 19.4522 105.098 19.196 105.098 18.8432C104.804 19.196 104.46 19.4522 104.065 19.6118C103.679 19.763 103.259 19.8386 102.805 19.8386C102.511 19.8386 102.23 19.805 101.961 19.7378C101.701 19.6706 101.474 19.5656 101.281 19.4228C101.087 19.28 100.932 19.0952 100.814 18.8684C100.705 18.6332 100.651 18.3518 100.651 18.0242C100.651 17.6546 100.714 17.3522 100.84 17.117C100.966 16.8818 101.129 16.6928 101.331 16.55C101.541 16.3988 101.776 16.2854 102.037 16.2098C102.305 16.1342 102.578 16.0712 102.856 16.0208C103.15 15.962 103.427 15.92 103.687 15.8948C103.956 15.8612 104.191 15.8192 104.393 15.7688C104.594 15.71 104.754 15.6302 104.872 15.5294C104.989 15.4202 105.048 15.2648 105.048 15.0632C105.048 14.828 105.002 14.639 104.909 14.4962C104.825 14.3534 104.712 14.2442 104.569 14.1686C104.435 14.093 104.279 14.0426 104.103 14.0174C103.935 13.9922 103.767 13.9796 103.599 13.9796C103.145 13.9796 102.767 14.0678 102.465 14.2442C102.163 14.4122 101.999 14.7356 101.974 15.2144H100.903C100.919 14.8112 101.003 14.471 101.155 14.1938C101.306 13.9166 101.507 13.694 101.759 13.526C102.011 13.3496 102.297 13.2236 102.616 13.148C102.944 13.0724 103.292 13.0346 103.662 13.0346C103.956 13.0346 104.246 13.0556 104.531 13.0976C104.825 13.1396 105.09 13.2278 105.325 13.3622C105.56 13.4882 105.749 13.6688 105.892 13.904C106.035 14.1392 106.106 14.4458 106.106 14.8238V18.1754C106.106 18.4274 106.119 18.6122 106.144 18.7298C106.178 18.8474 106.279 18.9062 106.447 18.9062C106.539 18.9062 106.648 18.8852 106.774 18.8432V19.6748ZM105.035 16.3358C104.901 16.4366 104.725 16.5122 104.506 16.5626C104.288 16.6046 104.057 16.6424 103.813 16.676C103.578 16.7012 103.339 16.7348 103.095 16.7768C102.851 16.8104 102.633 16.8692 102.44 16.9532C102.247 17.0372 102.087 17.159 101.961 17.3186C101.843 17.4698 101.785 17.6798 101.785 17.9486C101.785 18.125 101.818 18.2762 101.885 18.4022C101.961 18.5198 102.053 18.6164 102.163 18.692C102.28 18.7676 102.415 18.8222 102.566 18.8558C102.717 18.8894 102.877 18.9062 103.045 18.9062C103.397 18.9062 103.7 18.86 103.952 18.7676C104.204 18.6668 104.41 18.545 104.569 18.4022C104.729 18.251 104.846 18.0914 104.922 17.9234C104.998 17.747 105.035 17.5832 105.035 17.432V16.3358ZM108.804 16.4996C108.804 16.802 108.842 17.1002 108.918 17.3942C109.002 17.6798 109.123 17.936 109.283 18.1628C109.451 18.3896 109.661 18.5702 109.913 18.7046C110.173 18.839 110.476 18.9062 110.82 18.9062C111.181 18.9062 111.488 18.8348 111.74 18.692C111.992 18.5492 112.198 18.3644 112.357 18.1376C112.517 17.9024 112.63 17.6378 112.698 17.3438C112.773 17.0498 112.811 16.7516 112.811 16.4492C112.811 16.13 112.773 15.8234 112.698 15.5294C112.622 15.227 112.5 14.9624 112.332 14.7356C112.173 14.5088 111.963 14.3282 111.702 14.1938C111.442 14.051 111.127 13.9796 110.757 13.9796C110.396 13.9796 110.089 14.051 109.837 14.1938C109.585 14.3366 109.384 14.5256 109.233 14.7608C109.081 14.996 108.972 15.2648 108.905 15.5672C108.838 15.8696 108.804 16.1804 108.804 16.4996ZM113.844 19.7H112.773V18.818H112.748C112.572 19.1792 112.294 19.4396 111.916 19.5992C111.538 19.7588 111.123 19.8386 110.669 19.8386C110.165 19.8386 109.724 19.7462 109.346 19.5614C108.976 19.3766 108.666 19.1288 108.414 18.818C108.17 18.5072 107.985 18.146 107.859 17.7344C107.733 17.3228 107.67 16.886 107.67 16.424C107.67 15.962 107.729 15.5252 107.847 15.1136C107.973 14.702 108.157 14.345 108.401 14.0426C108.653 13.7318 108.964 13.4882 109.333 13.3118C109.711 13.127 110.148 13.0346 110.644 13.0346C110.812 13.0346 110.992 13.0514 111.186 13.085C111.379 13.1186 111.572 13.1774 111.765 13.2614C111.958 13.337 112.139 13.442 112.307 13.5764C112.483 13.7024 112.63 13.862 112.748 14.0552H112.773V10.7036H113.844V19.7ZM120.284 16.4492C120.284 16.844 120.334 17.1968 120.435 17.5076C120.544 17.81 120.691 18.0662 120.876 18.2762C121.061 18.4778 121.275 18.6332 121.519 18.7424C121.771 18.8516 122.035 18.9062 122.313 18.9062C122.59 18.9062 122.85 18.8516 123.094 18.7424C123.346 18.6332 123.564 18.4778 123.749 18.2762C123.934 18.0662 124.077 17.81 124.177 17.5076C124.287 17.1968 124.341 16.844 124.341 16.4492C124.341 16.0544 124.287 15.7058 124.177 15.4034C124.077 15.0926 123.934 14.8322 123.749 14.6222C123.564 14.4122 123.346 14.2526 123.094 14.1434C122.85 14.0342 122.59 13.9796 122.313 13.9796C122.035 13.9796 121.771 14.0342 121.519 14.1434C121.275 14.2526 121.061 14.4122 120.876 14.6222C120.691 14.8322 120.544 15.0926 120.435 15.4034C120.334 15.7058 120.284 16.0544 120.284 16.4492ZM119.15 16.4492C119.15 15.9704 119.217 15.5252 119.352 15.1136C119.486 14.6936 119.688 14.3324 119.956 14.03C120.225 13.7192 120.557 13.4756 120.952 13.2992C121.347 13.1228 121.8 13.0346 122.313 13.0346C122.833 13.0346 123.287 13.1228 123.673 13.2992C124.068 13.4756 124.4 13.7192 124.669 14.03C124.938 14.3324 125.139 14.6936 125.274 15.1136C125.408 15.5252 125.475 15.9704 125.475 16.4492C125.475 16.928 125.408 17.3732 125.274 17.7848C125.139 18.1964 124.938 18.5576 124.669 18.8684C124.4 19.1708 124.068 19.4102 123.673 19.5866C123.287 19.7546 122.833 19.8386 122.313 19.8386C121.8 19.8386 121.347 19.7546 120.952 19.5866C120.557 19.4102 120.225 19.1708 119.956 18.8684C119.688 18.5576 119.486 18.1964 119.352 17.7848C119.217 17.3732 119.15 16.928 119.15 16.4492ZM126.99 13.1858H127.998V14.219H128.023C128.468 13.4294 129.174 13.0346 130.14 13.0346C130.568 13.0346 130.925 13.0934 131.211 13.211C131.496 13.3286 131.727 13.4924 131.904 13.7024C132.08 13.9124 132.202 14.1644 132.269 14.4584C132.345 14.744 132.383 15.0632 132.383 15.416V19.7H131.312V15.29C131.312 14.8868 131.194 14.5676 130.959 14.3324C130.724 14.0972 130.4 13.9796 129.989 13.9796C129.661 13.9796 129.375 14.03 129.132 14.1308C128.897 14.2316 128.699 14.3744 128.54 14.5592C128.38 14.744 128.258 14.9624 128.174 15.2144C128.099 15.458 128.061 15.7268 128.061 16.0208V19.7H126.99V13.1858ZM139.489 13.1858H140.787V14.1308H139.489V18.1754C139.489 18.3014 139.497 18.4022 139.514 18.4778C139.539 18.5534 139.581 18.6122 139.64 18.6542C139.699 18.6962 139.779 18.7256 139.879 18.7424C139.989 18.7508 140.127 18.755 140.295 18.755H140.787V19.7H139.968C139.69 19.7 139.451 19.6832 139.249 19.6496C139.056 19.6076 138.897 19.5362 138.771 19.4354C138.653 19.3346 138.565 19.1918 138.506 19.007C138.447 18.8222 138.418 18.5786 138.418 18.2762V14.1308H137.309V13.1858H138.418V11.2328H139.489V13.1858ZM142.228 10.7036H143.299V14.1434H143.325C143.409 13.9418 143.526 13.7738 143.677 13.6394C143.829 13.4966 143.997 13.3832 144.181 13.2992C144.375 13.2068 144.572 13.1396 144.774 13.0976C144.984 13.0556 145.185 13.0346 145.378 13.0346C145.807 13.0346 146.164 13.0934 146.449 13.211C146.735 13.3286 146.966 13.4924 147.142 13.7024C147.319 13.9124 147.441 14.1644 147.508 14.4584C147.583 14.744 147.621 15.0632 147.621 15.416V19.7H146.55V15.29C146.55 14.8868 146.433 14.5676 146.197 14.3324C145.962 14.0972 145.639 13.9796 145.227 13.9796C144.9 13.9796 144.614 14.03 144.37 14.1308C144.135 14.2316 143.938 14.3744 143.778 14.5592C143.619 14.744 143.497 14.9624 143.413 15.2144C143.337 15.458 143.299 15.7268 143.299 16.0208V19.7H142.228V10.7036ZM154.005 15.8192C153.988 15.5672 153.93 15.3278 153.829 15.101C153.736 14.8742 153.606 14.681 153.438 14.5214C153.279 14.3534 153.085 14.2232 152.859 14.1308C152.64 14.03 152.397 13.9796 152.128 13.9796C151.851 13.9796 151.599 14.03 151.372 14.1308C151.153 14.2232 150.964 14.3534 150.805 14.5214C150.645 14.6894 150.519 14.8868 150.427 15.1136C150.334 15.332 150.28 15.5672 150.263 15.8192H154.005ZM155.038 17.6336C154.896 18.3644 154.581 18.9146 154.093 19.2842C153.606 19.6538 152.993 19.8386 152.254 19.8386C151.733 19.8386 151.279 19.7546 150.893 19.5866C150.515 19.4186 150.196 19.1834 149.935 18.881C149.675 18.5786 149.478 18.2174 149.343 17.7974C149.217 17.3774 149.146 16.9196 149.129 16.424C149.129 15.9284 149.205 15.4748 149.356 15.0632C149.507 14.6516 149.717 14.2946 149.986 13.9922C150.263 13.6898 150.586 13.4546 150.956 13.2866C151.334 13.1186 151.746 13.0346 152.191 13.0346C152.77 13.0346 153.249 13.1564 153.627 13.4C154.014 13.6352 154.32 13.9376 154.547 14.3072C154.782 14.6768 154.942 15.08 155.026 15.5168C155.118 15.9536 155.156 16.3694 155.139 16.7642H150.263C150.255 17.0498 150.288 17.3228 150.364 17.5832C150.439 17.8352 150.561 18.062 150.729 18.2636C150.897 18.4568 151.111 18.6122 151.372 18.7298C151.632 18.8474 151.939 18.9062 152.292 18.9062C152.745 18.9062 153.115 18.8012 153.4 18.5912C153.694 18.3812 153.888 18.062 153.98 17.6336H155.038Z" fill="white"/>
<path d="M79.6879 30.7673C82.9048 30.7673 85.0254 33.3103 85.0254 37.2382C85.0254 41.1771 82.9172 43.7077 79.7357 43.7077C78.0913 43.7937 76.5423 42.9324 75.7477 41.4901H75.6875V47.7682H73.0857V30.8999H75.6041V33.0081H75.652C76.4819 31.5749 78.0325 30.7139 79.6879 30.7673ZM93.6386 30.7673C96.8557 30.7673 98.9762 33.3103 98.9762 37.2382C98.9762 41.1771 96.868 43.7077 93.6865 43.7077C92.0421 43.7937 90.4931 42.9324 89.6984 41.4901H89.6382V47.7682H87.0365V30.8999H89.5548V33.0081H89.6027C90.4326 31.5749 91.9833 30.7139 93.6386 30.7673ZM112.317 25.9C115.991 25.9 118.509 27.9604 118.594 30.96H115.968C115.81 29.225 114.376 28.1778 112.28 28.1778C110.184 28.1778 108.75 29.2373 108.75 30.7795C108.75 32.0086 109.666 32.7319 111.907 33.2855L113.822 33.7558C117.389 34.5994 118.871 36.0322 118.871 38.5752C118.871 41.8277 116.281 43.8648 112.16 43.8648C108.304 43.8648 105.701 41.8756 105.533 38.731L108.196 38.7312C108.389 40.4552 110.064 41.5871 112.353 41.5871C114.546 41.5871 116.123 40.4551 116.123 38.9006C116.123 37.5512 115.172 36.7432 112.919 36.1895L110.666 35.6467C107.473 34.8756 105.991 33.3826 105.991 30.96C105.991 27.9604 108.605 25.9 112.317 25.9ZM134.304 30.7441C137.979 30.7441 140.317 33.2501 140.317 37.2382C140.317 41.2372 137.992 43.7323 134.304 43.7323C130.618 43.7323 128.293 41.2372 128.293 37.2382C128.293 33.2501 130.642 30.7441 134.304 30.7441ZM155.373 30.744C158.879 30.744 161.085 33.153 161.085 36.9962V37.8876H152.132V38.0448C152.049 38.9885 152.375 39.9225 153.027 40.6094C153.679 41.2964 154.595 41.6699 155.542 41.635C156.805 41.7533 157.995 41.0283 158.469 39.8522L160.94 39.8522C160.59 42.1532 158.349 43.7323 155.482 43.7323C151.795 43.7323 149.506 41.2618 149.506 37.2983C149.506 33.3226 151.807 30.744 155.373 30.744ZM124.487 27.9003V30.8999H126.897V32.9603H124.487V39.9479C124.487 41.0335 124.969 41.5394 126.029 41.5394C126.315 41.5344 126.601 41.5143 126.885 41.4792V43.5272C126.408 43.6162 125.924 43.6565 125.439 43.6475C122.873 43.6475 121.872 42.6836 121.872 40.2254V32.9603H120.029V30.8999H121.872V27.9003H124.487ZM65.193 26.1899L71.4697 43.5751H68.615L67.025 38.8761H60.3982L58.8068 43.5751H56L62.2768 26.1899H65.193ZM148.053 30.7673C148.353 30.7662 148.652 30.7988 148.944 30.8643V33.2979C148.566 33.1823 148.171 33.1292 147.775 33.1407C147.01 33.1097 146.27 33.4145 145.749 33.9752C145.228 34.5358 144.977 35.2963 145.064 36.0569V43.5751H142.462V30.8999H144.944V33.0573H145.004C145.35 31.6685 146.623 30.7127 148.053 30.7673ZM134.304 32.8878C132.196 32.8878 130.944 34.5148 130.944 37.2382C130.944 39.9849 132.196 41.5872 134.304 41.5872C136.413 41.5872 137.666 39.9849 137.666 37.2382C137.666 34.5024 136.413 32.8878 134.304 32.8878ZM79.0016 32.9849C77.0137 32.9849 75.6766 34.7075 75.6766 37.2382C75.6766 39.7921 77.0137 41.5025 79.0016 41.5025C81.025 41.5025 82.3512 39.8276 82.3512 37.2382C82.3512 34.672 81.025 32.9849 79.0016 32.9849ZM92.9523 32.9849C90.9644 32.9849 89.6273 34.7075 89.6273 37.2382C89.6273 39.7921 90.9644 41.5025 92.9523 41.5025C94.9758 41.5025 96.302 39.8276 96.302 37.2382C96.302 34.672 94.9758 32.9849 92.9523 32.9849ZM63.7479 29.0815H63.6754L61.0846 36.7077H66.3374L63.7479 29.0815ZM155.373 32.8522C154.517 32.8471 153.695 33.1841 153.088 33.7882C152.482 34.3923 152.143 35.2135 152.145 36.0692H158.482C158.529 35.2213 158.22 34.3921 157.63 33.7815C157.04 33.1708 156.222 32.834 155.373 32.8522Z" fill="white"/>
</svg>
