<svg width="160" height="56" viewBox="0 0 160 56" fill="none" xmlns="http://www.w3.org/2000/svg">
<g id="app store">
<path id="Path 3" d="M158.438 50.3504C158.438 51.8136 157.959 53.2168 157.106 54.2509C156.253 55.285 155.096 55.8652 153.89 55.8636L5.05398 55.8636C2.54197 55.8668 0.503272 53.3987 0.5 50.3504V6.38409C0.503272 3.33463 2.54101 0.864438 5.05398 0.863647H153.889C156.402 0.863647 158.438 3.33547 158.437 6.38409L158.439 50.3504L158.438 50.3504Z" fill="black"/>
<path id="Path 4" fill-rule="evenodd" clip-rule="evenodd" d="M32.9349 12.0795C33.1318 13.8631 32.4224 15.6206 31.3856 16.9125C30.3038 18.1843 28.5731 19.1571 26.8874 19.0318C26.6668 17.3156 27.5209 15.4906 28.477 14.3772C29.5576 13.1137 31.4343 12.1457 32.9349 12.0795ZM38.4543 22.3683C38.2662 22.4801 35.1487 24.3341 35.1828 28.1152H35.1828C35.2231 32.6799 39.1923 34.1905 39.2397 34.207C39.216 34.3134 38.6182 36.3866 37.1294 38.4893C35.8862 40.3414 34.5838 42.1534 32.5149 42.1853C31.5314 42.2079 30.8673 41.9263 30.1753 41.633C29.4534 41.3269 28.7012 41.0081 27.5244 41.0081C26.2773 41.0081 25.4918 41.3373 24.7344 41.6547C24.079 41.9294 23.4447 42.1952 22.5505 42.2314C20.5802 42.3035 19.0748 40.2551 17.7866 38.4184C15.2112 34.6704 13.2065 27.8563 15.8945 23.2195C17.197 20.9454 19.5719 19.4809 22.1104 19.4419C23.2283 19.4191 24.3005 19.8484 25.2403 20.2247C25.9591 20.5125 26.6005 20.7693 27.1259 20.7693C27.5873 20.7693 28.2107 20.5227 28.9373 20.2354C30.0823 19.7826 31.4836 19.2284 32.9111 19.3781C33.8874 19.4064 36.6656 19.7622 38.458 22.3661L38.4543 22.3683Z" fill="white"/>
<g id="Group 2">
<path id="Path 6" fill-rule="evenodd" clip-rule="evenodd" d="M102.478 40.8231C103.412 39.9827 103.882 38.8941 103.882 37.5549C103.882 36.4687 103.561 35.5574 102.917 34.8269C102.278 34.0965 101.279 33.4606 99.9194 32.9145C98.8115 32.4796 98.0452 32.0741 97.6252 31.7018C97.1413 31.2976 96.8981 30.7823 96.8981 30.1617C96.8981 29.5991 97.1116 29.1251 97.5327 28.7363C98.0333 28.3013 98.7332 28.0827 99.6253 28.0827C100.755 28.0827 101.764 28.3238 102.658 28.806L103.293 26.7518C102.343 26.2542 101.146 26.0048 99.7095 26.0048C98.101 26.0048 96.808 26.4173 95.8329 27.2423C94.8578 28.0685 94.369 29.1251 94.369 30.4159C94.369 32.3921 95.7522 33.8944 98.5162 34.9215C99.5327 35.2938 100.256 35.6992 100.694 36.1342C101.129 36.5703 101.351 37.1058 101.351 37.7452C101.351 38.4591 101.083 39.0312 100.553 39.4591C100.024 39.8858 99.2825 40.1009 98.3287 40.1009C97.0025 40.1009 95.7842 39.7747 94.6751 39.1198L94.0903 41.2202C95.1176 41.8738 96.4794 42.2001 98.1781 42.2001C100.017 42.2001 101.451 41.7403 102.478 40.8231ZM63.1039 41.9673H60.41L58.9343 37.347H53.805L52.3993 41.9673H49.7765L54.8596 26.2377H57.9984L63.1039 41.9673ZM58.4895 35.4086L57.1549 31.3013C57.0138 30.8817 56.7481 29.8936 56.359 28.3381H56.3115C56.1549 29.0071 55.9046 29.9952 55.5618 31.3013L54.2498 35.4086H58.4895ZM74.5733 40.7296C75.6255 39.6103 76.151 38.0855 76.151 36.1566C76.151 34.4297 75.7014 33.0374 74.8058 31.9771C73.909 30.9193 72.788 30.3909 71.4451 30.3909C69.7275 30.3909 68.4475 31.0682 67.6041 32.4227H67.5566L67.4155 30.625H65.1913C65.253 31.8991 65.285 33.1414 65.285 34.3529V46.5661H67.8141V40.6149C68.4724 41.6882 69.5567 42.2236 71.0644 42.2236C72.4606 42.2236 73.6314 41.726 74.5733 40.7296ZM73.5737 36.2489C73.5737 35.145 73.3246 34.2349 72.8239 33.5174C72.2771 32.7716 71.5428 32.3981 70.6223 32.3981C69.9983 32.3981 69.4313 32.6061 68.9248 33.0162C68.4171 33.4299 68.0849 33.9701 67.9295 34.6391C67.8602 34.8893 67.8207 35.1468 67.8121 35.4062V37.2985C67.8121 38.1223 68.0659 38.8185 68.5737 39.3882C69.0814 39.9556 69.7409 40.2404 70.5523 40.2404C71.5049 40.2404 72.2463 39.8728 72.7765 39.1436C73.308 38.4119 73.5737 37.4474 73.5737 36.2489ZM87.6646 40.7297C88.7168 39.6104 89.2423 38.0856 89.2423 36.1567C89.2423 34.4298 88.7915 33.0375 87.8971 31.9773C86.998 30.9194 85.877 30.3911 84.5353 30.3911C82.8165 30.3911 81.5365 31.0683 80.6943 32.4229H80.6468L80.5057 30.6251H78.2814C78.3431 31.8993 78.3752 33.1415 78.3752 34.353V46.5663H80.9042V40.6151C81.5626 41.6883 82.6468 42.2237 84.1545 42.2237C85.5519 42.2237 86.7216 41.7261 87.6646 40.7297ZM86.6652 36.2489C86.6652 35.145 86.4149 34.2349 85.9143 33.5174C85.3675 32.7716 84.6355 32.3981 83.715 32.3981C83.0911 32.3981 82.524 32.6061 82.0151 33.0162C81.5074 33.4299 81.1765 33.9701 81.0211 34.6391C80.944 34.9511 80.9024 35.2052 80.9024 35.4062V37.2985C80.9024 38.1223 81.1575 38.8185 81.6628 39.3882C82.1705 39.9544 82.8301 40.2404 83.6438 40.2404C84.5976 40.2404 85.339 39.8728 85.8681 39.1436C86.3995 38.4119 86.6652 37.4474 86.6652 36.2489ZM112.264 32.5162H109.477V38.023C109.477 39.4236 109.968 40.1222 110.952 40.1222C111.404 40.1222 111.779 40.0843 112.076 40.0051L112.146 41.9188C111.648 42.1043 110.992 42.1977 110.179 42.1977C109.18 42.1977 108.4 41.8939 107.836 41.2864C107.275 40.6789 106.993 39.6612 106.993 38.2286V32.5115H105.332V30.6203H106.993V28.5436L109.477 27.7966V30.6203H112.264L112.264 32.5162ZM123.318 40.4969C124.317 39.3775 124.818 37.9462 124.818 36.2028C124.818 34.5055 124.335 33.1226 123.365 32.0517C122.349 30.9477 121.008 30.3946 119.337 30.3946C117.604 30.3946 116.226 30.9548 115.202 32.0753C114.181 33.1947 113.668 34.6343 113.668 36.3919C113.668 38.0715 114.164 39.4638 115.156 40.5689C116.148 41.6717 117.477 42.2237 119.15 42.2237C120.883 42.2237 122.273 41.6493 123.318 40.4969ZM122.196 36.2608C122.196 35.2219 121.971 34.3307 121.519 33.5848C120.988 32.6842 120.229 32.2338 119.246 32.2338C118.233 32.2338 117.456 32.6842 116.927 33.5848C116.474 34.3307 116.248 35.2372 116.248 36.3081C116.248 37.3482 116.474 38.2418 116.927 38.9852C117.474 39.8859 118.236 40.3362 119.224 40.3362C120.191 40.3362 120.949 39.8764 121.497 38.9628C121.962 38.1992 122.196 37.3021 122.196 36.2608ZM132.243 32.7714C132.51 32.7705 132.777 32.7938 133.04 32.8412L133.038 30.437C132.851 30.4075 132.639 30.3909 132.406 30.3909C131.747 30.3919 131.105 30.605 130.578 30.9985C130.001 31.4488 129.581 32.0504 129.313 32.7962H129.243L129.151 30.6262H126.948C126.999 31.8157 127.024 33.0062 127.021 34.1969V41.9671H129.55V36.0159C129.55 35.1141 129.762 34.3671 130.182 33.7761C130.665 33.1047 131.354 32.7714 132.243 32.7714ZM144.351 35.7596C144.358 36.1427 144.327 36.5255 144.259 36.9026H136.671C136.7 38.0231 137.068 38.8812 137.772 39.4722C138.412 39.9994 139.239 40.2641 140.254 40.2641C141.377 40.2641 142.402 40.0868 143.324 39.7287L143.72 41.4768C142.643 41.9449 141.371 42.1777 139.904 42.1777C138.139 42.1777 136.753 41.66 135.745 40.627C134.739 39.5928 134.235 38.2028 134.235 36.4617C134.235 34.7526 134.704 33.3283 135.642 32.1925C136.624 30.9798 137.951 30.3734 139.622 30.3734C141.262 30.3734 142.504 30.9798 143.348 32.1925C144.016 33.1534 144.351 34.3448 144.351 35.7596ZM141.45 33.1687C141.793 33.7136 141.959 34.3578 141.941 35.1059L136.674 35.1036C136.752 34.3436 137.002 33.6888 137.423 33.1439C137.935 32.4583 138.609 32.1168 139.436 32.1168C140.339 32.1168 141.012 32.4666 141.45 33.1687Z" fill="white"/>
</g>
<g id="Group 3">
<path id="Path 7" fill-rule="evenodd" clip-rule="evenodd" d="M83.775 20.6084H82.5307V12.4764H83.775V20.6084ZM51.2566 20.5847C51.7631 20.6426 52.3717 20.6769 53.0751 20.6769C56.0561 20.6769 57.6338 19.2325 57.6338 16.5589C57.6338 14.2411 56.2981 12.8192 53.3978 12.8192C52.6809 12.8171 51.965 12.8709 51.2566 12.9799V20.5847ZM52.4987 13.8748C52.7751 13.818 53.1085 13.7944 53.4999 13.7944C55.3421 13.7944 56.3208 14.7932 56.3208 16.5933C56.3208 18.6121 55.2389 19.69 53.3386 19.69C52.9352 19.69 52.6482 19.6794 52.4987 19.6558V13.8748ZM61.7973 20.7349C60.1627 20.7349 59.1034 19.5187 59.1034 17.8675C59.1034 16.1466 60.1852 14.9197 61.8899 14.9197C63.5008 14.9197 64.5838 16.078 64.5838 17.7765C64.5838 19.5187 63.4676 20.7349 61.7973 20.7349ZM60.3709 17.832C60.3709 16.6618 60.9462 15.825 61.8442 15.825C62.7185 15.825 63.2938 16.6736 63.2938 17.8083C63.2938 18.9217 62.7066 19.8165 61.8323 19.8165C60.9581 19.8165 60.3709 18.9796 60.3709 17.832ZM73.9033 15.0343L72.1536 20.6085H71.0136L70.2888 18.1878C70.1086 17.5957 69.9586 16.9949 69.8392 16.3877L69.8155 16.3877C69.7242 16.9952 69.551 17.6039 69.3671 18.1878L68.5961 20.6085H67.4442L65.7977 15.0343H67.0753L67.7088 17.6843C67.8582 18.3155 67.984 18.9112 68.0883 19.4738H68.1121C68.2034 19.0046 68.3529 18.4183 68.5723 17.6961L69.3671 15.0355H70.3802L71.1405 17.6394C71.3244 18.2706 71.4739 18.8899 71.5901 19.475H71.6233C71.704 18.9017 71.8309 18.293 72.0029 17.6394L72.6827 15.0355L73.9033 15.0343ZM79.1032 20.6085H80.3463L80.3476 17.2706C80.3476 15.8144 79.5765 14.9197 78.4021 14.9197C77.6417 14.9197 76.9632 15.2979 76.6287 15.8936H76.5943L76.5362 15.0331H75.4424C75.4768 15.6064 75.4887 16.1347 75.4887 16.6276V20.6085H76.7319V17.2931C76.7319 16.5591 77.2384 15.9279 77.9751 15.9279C78.7236 15.9279 79.1032 16.422 79.1032 17.4077V20.6085ZM85.6117 17.8675C85.6117 19.5187 86.6722 20.7349 88.3056 20.7349C89.9747 20.7349 91.0921 19.5187 91.0909 17.7765C91.0909 16.078 90.0091 14.9197 88.397 14.9197C86.6936 14.9197 85.6117 16.1466 85.6117 17.8675ZM88.3545 15.8251C87.4565 15.8251 86.8811 16.6619 86.8811 17.8321C86.8811 18.9798 87.4695 19.8166 88.3414 19.8166C89.2169 19.8166 89.8028 18.9219 89.8028 17.8084C89.804 16.6738 89.2299 15.8251 88.3545 15.8251ZM95.9037 19.9667L95.9938 20.6085H95.9939L97.1148 20.6097C97.0591 20.2775 97.0342 19.8414 97.0342 19.2788V17.2257C97.0342 15.688 96.2964 14.9197 94.8349 14.9197C94.0769 14.9197 93.4316 15.0804 92.9144 15.4019L93.167 16.2163C93.5929 15.9409 94.0769 15.8026 94.6285 15.8026C95.3995 15.8026 95.7898 16.1702 95.7898 16.9042V17.007C93.7175 17.007 92.5205 17.7186 92.5205 19.0944C92.5205 20.0352 93.2323 20.735 94.2347 20.735C94.9369 20.735 95.4909 20.4832 95.8705 19.9667H95.9037ZM95.8226 17.832C94.4418 17.832 93.7491 18.1653 93.7491 18.956C93.7491 19.5411 94.1061 19.8272 94.602 19.8272C95.2342 19.8272 95.8226 19.3461 95.8226 18.6925V17.832ZM103.013 19.7136L103.071 20.6084H104.178C104.144 20.1498 104.131 19.6451 104.131 19.1061V12.4764H102.887V15.676H102.862C102.563 15.1701 102.033 14.9184 101.284 14.9184C99.8702 14.9184 98.8346 16.1464 98.8346 17.8898C98.8346 19.5529 99.8335 20.7348 101.182 20.7348C102.021 20.7348 102.621 20.3897 102.978 19.7136H103.013ZM102.887 17.3285C102.887 16.5484 102.369 15.8829 101.578 15.8829C100.656 15.8829 100.092 16.6973 100.092 17.8438C100.092 18.9679 100.677 19.7373 101.553 19.7373C102.334 19.7373 102.887 19.06 102.887 18.2575V17.3285ZM109.327 17.8675C109.327 19.5187 110.387 20.7349 112.02 20.7349C113.692 20.7349 114.808 19.5187 114.807 17.7765C114.807 16.078 113.725 14.9197 112.113 14.9197C110.409 14.9197 109.327 16.1466 109.327 17.8675ZM112.067 15.8251C111.17 15.8251 110.595 16.6619 110.595 17.8321C110.595 18.9798 111.182 19.8166 112.055 19.8166C112.931 19.8166 113.517 18.9219 113.517 17.8084C113.519 16.6738 112.944 15.8251 112.067 15.8251ZM120.248 20.6084H121.493V17.2694C121.493 15.8132 120.72 14.9185 119.546 14.9185C118.787 14.9185 118.107 15.2979 117.774 15.8936H117.739L117.681 15.0331H116.588C116.622 15.6064 116.634 16.1347 116.634 16.6276V20.6084H117.878V17.293C117.878 16.559 118.384 15.9279 119.12 15.9279C119.869 15.9279 120.248 16.4219 120.248 17.4077V20.6084ZM129.857 15.9633H128.489V18.67C128.489 19.3591 128.729 19.7031 129.213 19.7031C129.432 19.7031 129.616 19.6794 129.765 19.6451L129.799 20.586C129.558 20.6782 129.235 20.7243 128.835 20.7243C127.855 20.7243 127.269 20.1853 127.269 18.774V15.9633H126.453V15.0343H127.269V14.0131L128.489 13.6455V15.0331H129.857V15.9633ZM135.195 20.6084H136.437V17.2929C136.437 15.8356 135.714 14.9184 134.53 14.9184C133.806 14.9184 133.239 15.2174 132.848 15.8249H132.823V12.4764H131.581V20.6084H132.823V17.248C132.823 16.3651 133.423 15.929 134.067 15.929C134.817 15.929 135.195 16.4337 135.195 17.4312V20.6084ZM143.181 18.1192H139.45C139.474 19.1747 140.175 19.7704 141.213 19.7704C141.764 19.7704 142.272 19.6782 142.72 19.5068L142.914 20.3673C142.385 20.5966 141.762 20.7112 141.037 20.7112C139.288 20.7112 138.252 19.6096 138.252 17.9017C138.252 16.1926 139.312 14.9078 140.897 14.9078C142.327 14.9078 143.223 15.9633 143.223 17.5577C143.232 17.7459 143.217 17.9344 143.181 18.1192ZM140.811 15.7683C140.097 15.7683 139.532 16.3876 139.451 17.2363L140.811 15.7683ZM139.451 17.2363H142.041H139.451Z" fill="white"/>
</g>
</g>
</svg>
