<svg width="16" height="16" viewBox="0 0 16 16" fill="none" xmlns="http://www.w3.org/2000/svg">
<g id="Favicon">
<rect width="16" height="16" rx="2" fill="#44E19B"/>
<path id="Vector" d="M5.94569 14C5.83918 14 5.73436 13.9508 5.65423 13.8578L2.13218 9.7715C2.04842 9.67432 2.00073 9.53953 2.00001 9.39822C1.99928 9.2569 2.04576 9.12151 2.12856 9.02315L5.65084 4.84057C5.77309 4.6957 5.95417 4.65392 6.11104 4.7351C6.26766 4.81627 6.36958 5.0044 6.36958 5.21267V7.20382C6.36958 7.35551 6.47053 7.47905 6.59447 7.47905H9.40577C9.99693 7.47905 10.4779 8.06772 10.4779 8.79118V9.56234L12.9644 6.60953L10.4779 3.72456V4.41869C10.4779 5.14216 9.99693 5.73083 9.40577 5.73083H7.03603V4.69392H9.40577C9.52971 4.69392 9.63066 4.57038 9.63066 4.41869V2.51849C9.63066 2.31141 9.73137 2.12387 9.88702 2.04211C10.0427 1.96034 10.223 1.99974 10.3458 2.14224L13.8678 6.22854C13.9516 6.32572 13.9993 6.46051 14 6.60182C14.0007 6.74314 13.9542 6.87853 13.8714 6.97689L10.3494 11.1595C10.2272 11.3043 10.0461 11.3461 9.88945 11.2649C9.73282 11.1838 9.6309 10.9956 9.6309 10.7874V8.79088C9.6309 8.6392 9.52996 8.51566 9.40601 8.51566H6.59472C6.00355 8.51566 5.52254 7.92699 5.52254 7.20353V6.43799L3.03612 9.39081L5.52254 12.2755V11.581C5.52254 10.8576 6.00355 10.2689 6.59472 10.2689H8.88311V11.3058H6.59472C6.47077 11.3058 6.36982 11.4294 6.36982 11.581V13.4813C6.36982 13.6883 6.26912 13.8759 6.11346 13.9576C6.05948 13.9861 6.00258 13.9997 5.94618 13.9997L5.94569 14Z" fill="url(#paint0_linear_60_5062)"/>
</g>
<defs>
<linearGradient id="paint0_linear_60_5062" x1="6.74457" y1="15.1071" x2="11.0572" y2="-1.19738" gradientUnits="userSpaceOnUse">
<stop stop-color="white"/>
<stop offset="1" stop-color="#DAFFED"/>
</linearGradient>
</defs>
</svg>
