<svg width="45" height="38" viewBox="0 0 45 38" fill="none" xmlns="http://www.w3.org/2000/svg">
<path id="Vector" d="M14.6133 38C14.2188 38 13.8306 37.8443 13.5338 37.5497L0.489556 24.6097C0.179342 24.302 0.00272077 23.8752 3.10527e-05 23.4277C-0.00265866 22.9802 0.169488 22.5514 0.476116 22.24L13.5212 8.99513C13.974 8.53637 14.6446 8.40409 15.2256 8.66114C15.8057 8.91819 16.1832 9.51393 16.1832 10.1735V16.4788C16.1832 16.9591 16.557 17.3503 17.0161 17.3503H27.428C29.6174 17.3503 31.3989 19.2144 31.3989 21.5054V23.9474L40.6076 14.5968L31.3989 5.46111V7.6592C31.3989 9.95017 29.6174 11.8143 27.428 11.8143H18.6514V8.53075H27.428C27.887 8.53075 28.2609 8.13953 28.2609 7.6592V1.64189C28.2609 0.986125 28.6339 0.392267 29.2104 0.133336C29.7869 -0.125594 30.4548 -0.000830403 30.9094 0.450421L43.9536 13.3904C44.2638 13.6981 44.4404 14.1249 44.4431 14.5724C44.4458 15.0199 44.2737 15.4487 43.9671 15.7602L30.9228 29.005C30.4701 29.4638 29.7994 29.596 29.2193 29.339C28.6392 29.0819 28.2618 28.4862 28.2618 27.8267V21.5045C28.2618 21.0241 27.8879 20.6329 27.4289 20.6329H17.017C14.8275 20.6329 13.0461 18.7688 13.0461 16.4778V14.0536L3.83736 23.4042L13.0461 32.539V30.34C13.0461 28.049 14.8275 26.1849 17.017 26.1849H25.4923V29.4684H17.017C16.5579 29.4684 16.1841 29.8597 16.1841 30.34V36.3573C16.1841 37.0131 15.8111 37.6069 15.2346 37.8658C15.0347 37.9559 14.824 37.9991 14.6151 37.9991L14.6133 38Z" fill="url(#paint0_linear_21_1346)"/>
<defs>
<linearGradient id="paint0_linear_21_1346" x1="17.572" y1="41.5059" x2="29.4576" y2="-11.0492" gradientUnits="userSpaceOnUse">
<stop stop-color="#29826C"/>
<stop offset="1" stop-color="#4DFFA9"/>
</linearGradient>
</defs>
</svg>
