<svg width="167" height="60" viewBox="0 0 167 60" fill="none" xmlns="http://www.w3.org/2000/svg">
<g id="Frame 46255">
<path id="Vector" d="M75.4886 40.347C75.0732 40.347 74.6645 40.1817 74.352 39.8689L60.6167 26.1297C60.2901 25.803 60.1041 25.3498 60.1013 24.8747C60.0984 24.3995 60.2797 23.9443 60.6026 23.6136L74.3388 9.5507C74.8155 9.06361 75.5217 8.92315 76.1334 9.19608C76.7442 9.46901 77.1417 10.1015 77.1417 10.8018V17.4966C77.1417 18.0066 77.5354 18.4219 78.0187 18.4219H88.9822C91.2876 18.4219 93.1635 20.4012 93.1635 22.8337V25.4265L102.86 15.4984L93.1635 5.79841V8.13226C93.1635 10.5647 91.2876 12.544 88.9822 12.544H79.7407V9.05764H88.9822C89.4656 9.05764 89.8592 8.64226 89.8592 8.13226V1.7433C89.8592 1.04703 90.252 0.416495 90.859 0.141572C91.466 -0.133351 92.1694 -0.000881698 92.648 0.478241L106.383 14.2174C106.71 14.5441 106.896 14.9974 106.899 15.4725C106.902 15.9476 106.72 16.4029 106.397 16.7336L92.6622 30.7965C92.1854 31.2835 91.4793 31.424 90.8685 31.1511C90.2576 30.8781 89.8602 30.2456 89.8602 29.5453V22.8327C89.8602 22.3227 89.4665 21.9073 88.9832 21.9073H78.0197C75.7143 21.9073 73.8384 19.928 73.8384 17.4956V14.9216L64.1419 24.8498L73.8384 34.5487V32.2139C73.8384 29.7814 75.7143 27.8022 78.0197 27.8022H86.944V31.2885H78.0197C77.5363 31.2885 77.1426 31.7039 77.1426 32.2139V38.6029C77.1426 39.2991 76.7499 39.9297 76.1429 40.2046C75.9324 40.3002 75.7105 40.346 75.4905 40.346L75.4886 40.347Z" fill="url(#paint0_linear_88_16400)"/>
<g id="Skip Your Broker">
<path d="M0 56.0895H3.53723C3.73575 57.1512 4.49373 57.5935 5.68484 57.5935C6.78571 57.5935 7.29103 57.2219 7.29103 56.5142C7.29103 55.7179 6.73157 55.3994 4.78248 54.9393C1.10087 54.0723 0.378989 52.7629 0.378989 51.1173C0.378989 49.0824 1.91299 47.366 5.35999 47.366C8.96941 47.366 10.4312 49.1531 10.6117 51.0819H7.09251C7.00228 50.4272 6.65938 49.7548 5.35999 49.7548C4.52982 49.7548 4.00646 50.0733 4.00646 50.728C4.00646 51.3827 4.47568 51.6481 6.38868 52.1082C10.2147 53.046 10.9726 54.3908 10.9726 56.1249C10.9726 58.4075 9.16793 60 5.52241 60C2.09346 60 0.270707 58.4252 0 56.0895Z" fill="#141414"/>
<path d="M11.9336 59.77V47.596H15.5431V52.5328C16.3552 51.4358 18.196 49.2062 19.4232 47.596H23.7365L19.1705 52.5859L23.8808 59.77H19.6217L16.6439 54.8862L15.5431 56.001V59.77H11.9336Z" fill="#141414"/>
<path d="M24.236 47.596H27.8815V59.77H24.236V47.596Z" fill="#141414"/>
<path d="M29.7354 59.77V47.596H35.4925C38.2897 47.596 40.1847 49.1177 40.1847 51.5065C40.1847 54.2315 38.0371 55.5056 35.4022 55.5056H33.3268V59.77H29.7354ZM33.3268 50.091V52.9929H34.8067C35.8353 52.9929 36.5753 52.5682 36.5753 51.5419C36.5753 50.4979 35.8353 50.091 34.8247 50.091H33.3268Z" fill="#141414"/>
<path d="M51.0897 59.77H47.4441V55.5586C47.4441 55.3994 47.4261 55.2755 47.3178 55.0986L43.0587 47.596H47.1734C47.9675 49.3124 48.8699 51.2942 49.4293 52.6744C49.9346 51.3473 50.9814 49.1531 51.7213 47.596H55.5112L51.216 55.0809C51.1438 55.187 51.0897 55.2932 51.0897 55.5409V59.77Z" fill="#141414"/>
<path d="M61.1217 47.366C65.038 47.366 67.3119 50.0379 67.3119 53.683C67.3119 57.1158 65.1823 60 60.9232 60C56.7543 60 54.7331 57.1335 54.7331 53.683C54.7331 50.1794 56.9529 47.366 61.1217 47.366ZM60.9954 49.9317C59.2268 49.9317 58.4869 51.365 58.4869 53.6299C58.4869 55.8771 59.2448 57.4343 61.0495 57.4343C62.9445 57.4343 63.5581 55.7887 63.5581 53.7007C63.5581 51.4888 62.9084 49.9317 60.9954 49.9317Z" fill="#141414"/>
<path d="M68.4899 47.596H72.1354V55.0809C72.1354 56.8327 73.0017 57.4343 74.1206 57.4343C75.3117 57.4343 75.9975 56.7088 75.9975 55.0809V47.596H79.661V54.727C79.661 58.7791 77.2247 60 74.0484 60C70.7638 60 68.4899 58.7083 68.4899 54.7447V47.596Z" fill="#141414"/>
<path d="M86.2138 55.1694H84.9325V59.77H81.3953V47.596H87.5493C90.473 47.596 91.8987 49.1354 91.8987 50.958C91.8987 52.6567 90.888 53.506 90.0218 53.8599C90.8158 54.1254 91.646 54.9393 91.646 57.0096V57.5051C91.646 58.2659 91.6641 59.2568 91.8084 59.77H88.3434C88.1268 59.2568 88.0727 58.3721 88.0727 57.1158V56.7973C88.0727 55.7533 87.82 55.1694 86.2138 55.1694ZM84.9325 50.0733V52.6921H86.6109C87.82 52.6921 88.2712 52.1966 88.2712 51.365C88.2712 50.551 87.7478 50.0733 86.6289 50.0733H84.9325Z" fill="#141414"/>
<path d="M96.43 59.77V47.596H102.602C105.616 47.596 106.933 49.047 106.933 50.7634C106.933 52.0551 106.23 52.9929 105.237 53.3999C106.175 53.7184 107.276 54.5677 107.276 56.1426C107.276 58.1421 105.742 59.77 102.656 59.77H96.43ZM99.9673 52.2851H101.989C102.999 52.2851 103.396 51.7897 103.396 51.1173C103.396 50.3741 102.837 50.0025 101.971 50.0025H99.9673V52.2851ZM99.9673 54.6916V57.3812H101.826C103.017 57.3812 103.523 56.8681 103.523 56.001C103.523 55.2401 103.053 54.6916 101.88 54.6916H99.9673Z" fill="#1DCE80"/>
<path d="M113.146 55.1694H111.864V59.77H108.327V47.596H114.481C117.405 47.596 118.83 49.1354 118.83 50.958C118.83 52.6567 117.82 53.506 116.954 53.8599C117.748 54.1254 118.578 54.9393 118.578 57.0096V57.5051C118.578 58.2659 118.596 59.2568 118.74 59.77H115.275C115.059 59.2568 115.004 58.3721 115.004 57.1158V56.7973C115.004 55.7533 114.752 55.1694 113.146 55.1694ZM111.864 50.0733V52.6921H113.543C114.752 52.6921 115.203 52.1966 115.203 51.365C115.203 50.551 114.68 50.0733 113.561 50.0733H111.864Z" fill="#1DCE80"/>
<path d="M125.965 47.366C129.881 47.366 132.155 50.0379 132.155 53.683C132.155 57.1158 130.026 60 125.767 60C121.598 60 119.576 57.1335 119.576 53.683C119.576 50.1794 121.796 47.366 125.965 47.366ZM125.839 49.9317C124.07 49.9317 123.33 51.365 123.33 53.6299C123.33 55.8771 124.088 57.4343 125.893 57.4343C127.788 57.4343 128.401 55.7887 128.401 53.7007C128.401 51.4888 127.752 49.9317 125.839 49.9317Z" fill="#1DCE80"/>
<path d="M133.443 59.77V47.596H137.052V52.5328C137.864 51.4358 139.705 49.2062 140.932 47.596H145.246L140.68 52.5859L145.39 59.77H141.131L138.153 54.8862L137.052 56.001V59.77H133.443Z" fill="#1DCE80"/>
<path d="M154.913 52.1966V54.8508H149.246V57.1335H155.563L155.166 59.77H145.745V47.596H155.148V50.2325H149.246V52.1966H154.913Z" fill="#1DCE80"/>
<path d="M161.315 55.1694H160.034V59.77H156.497V47.596H162.651C165.574 47.596 167 49.1354 167 50.958C167 52.6567 165.989 53.506 165.123 53.8599C165.917 54.1254 166.747 54.9393 166.747 57.0096V57.5051C166.747 58.2659 166.765 59.2568 166.91 59.77H163.445C163.228 59.2568 163.174 58.3721 163.174 57.1158V56.7973C163.174 55.7533 162.921 55.1694 161.315 55.1694ZM160.034 50.0733V52.6921H161.712C162.921 52.6921 163.373 52.1966 163.373 51.365C163.373 50.551 162.849 50.0733 161.73 50.0733H160.034Z" fill="#1DCE80"/>
</g>
</g>
<defs>
<linearGradient id="paint0_linear_88_16400" x1="78.6041" y1="44.0694" x2="91.3188" y2="-11.6862" gradientUnits="userSpaceOnUse">
<stop stop-color="#29826C"/>
<stop offset="1" stop-color="#4DFFA9"/>
</linearGradient>
</defs>
</svg>
