<svg width="182" height="56" viewBox="0 0 182 56" fill="none" xmlns="http://www.w3.org/2000/svg">
<rect width="182" height="56" rx="8.4" fill="black"/>
<path fill-rule="evenodd" clip-rule="evenodd" d="M13.209 10.5659C12.8016 10.9971 12.5622 11.6649 12.5622 12.5315V43.4687C12.5622 44.3353 12.8016 45.0031 13.209 45.4343L13.3126 45.5351L30.6432 28.2045V27.7957L13.3126 10.4651L13.209 10.5659Z" fill="#00D7FE"/>
<mask id="mask0_419_11042" style="mask-type:alpha" maskUnits="userSpaceOnUse" x="30" y="22" width="15" height="12">
<path d="M36.4182 33.9836L30.6432 28.2044V27.7956L36.421 22.0178L43.3958 25.9798C45.3502 27.0914 45.3502 28.9086 43.3958 30.0188L36.5512 33.908L36.4182 33.9836Z" fill="white"/>
</mask>
<g mask="url(#mask0_419_11042)">
<path fill-rule="evenodd" clip-rule="evenodd" d="M36.4182 33.9836L30.6432 28.2044V27.7956L36.421 22.0178L43.3958 25.9798C45.3502 27.0914 45.3502 28.9086 43.3958 30.0188L36.5512 33.908L36.4182 33.9836Z" fill="url(#paint0_linear_419_11042)"/>
</g>
<mask id="mask1_419_11042" style="mask-type:alpha" maskUnits="userSpaceOnUse" x="13" y="28" width="24" height="18">
<path d="M36.5512 33.908L30.6432 28L13.209 45.4342C13.8544 46.116 14.9184 46.2 16.1168 45.5196L36.5512 33.908Z" fill="white"/>
</mask>
<g mask="url(#mask1_419_11042)">
<path fill-rule="evenodd" clip-rule="evenodd" d="M36.5512 33.908L30.6432 28L13.209 45.4342C13.8544 46.116 14.9184 46.2 16.1168 45.5196L36.5512 33.908Z" fill="url(#paint1_linear_419_11042)"/>
</g>
<mask id="mask2_419_11042" style="mask-type:alpha" maskUnits="userSpaceOnUse" x="13" y="10" width="24" height="19">
<path d="M36.5512 22.0921L16.1168 10.4805C14.9184 9.80007 13.8544 9.88407 13.209 10.5659L30.6432 28.0001L36.5512 22.0921Z" fill="white"/>
</mask>
<g mask="url(#mask2_419_11042)">
<path fill-rule="evenodd" clip-rule="evenodd" d="M36.5512 22.0921L16.1168 10.4805C14.9184 9.80007 13.8544 9.88407 13.209 10.5659L30.6432 28.0001L36.5512 22.0921Z" fill="url(#paint2_linear_419_11042)"/>
</g>
<path fill-rule="evenodd" clip-rule="evenodd" d="M145.452 43.3342H148.064V25.8328H145.452V43.3342ZM168.981 32.137L165.987 39.725H165.897L162.789 32.137H159.975L164.636 42.742L161.979 48.6416H164.704L171.886 32.137H168.981ZM154.167 41.3462C153.31 41.3462 152.117 40.9192 152.117 39.8608C152.117 38.5098 153.604 37.9917 154.886 37.9917C156.036 37.9917 156.575 38.2396 157.273 38.577C157.07 40.1982 155.674 41.3462 154.167 41.3462ZM154.482 31.7548C152.59 31.7548 150.632 32.5878 149.821 34.4344L152.139 35.4018C152.635 34.4344 153.558 34.118 154.526 34.118C155.877 34.118 157.251 34.9286 157.273 36.3706V36.5498C156.8 36.2796 155.788 35.875 154.549 35.875C152.05 35.875 149.505 37.2484 149.505 39.8145C149.505 42.1567 151.554 43.666 153.85 43.666C155.607 43.666 156.575 42.8778 157.184 41.9537H157.273V43.3048H159.795V36.596C159.795 33.488 157.476 31.7548 154.482 31.7548ZM138.337 34.2677H134.621V28.2688H138.337C140.29 28.2688 141.399 29.8858 141.399 31.2676C141.399 32.6242 140.29 34.2677 138.337 34.2677ZM138.27 25.8328H132.01V43.3342H134.621V36.7037H138.27C141.165 36.7037 144.011 34.6066 144.011 31.2676C144.011 27.9286 141.165 25.8328 138.27 25.8328ZM104.136 41.349C102.332 41.349 100.821 39.8384 100.821 37.7636C100.821 35.6664 102.332 34.1319 104.136 34.1319C105.918 34.1319 107.316 35.6664 107.316 37.7636C107.316 39.8384 105.918 41.349 104.136 41.349ZM107.135 33.117H107.045C106.459 32.4184 105.332 31.787 103.911 31.787C100.933 31.787 98.2044 34.4022 98.2044 37.7636C98.2044 41.1012 100.933 43.6954 103.911 43.6954C105.332 43.6954 106.459 43.0639 107.045 42.3416H107.135V43.1984C107.135 45.4776 105.918 46.6956 103.956 46.6956C102.354 46.6956 101.361 45.5448 100.955 44.5746L98.6776 45.5224C99.3314 47.1016 101.069 49.0406 103.956 49.0406C107.023 49.0406 109.617 47.236 109.617 42.8386V32.1468H107.135V33.117ZM111.422 43.3342H114.038V25.8314H111.422V43.3342ZM117.894 37.5606C117.827 35.2604 119.676 34.0872 121.006 34.0872C122.045 34.0872 122.924 34.6052 123.217 35.35L117.894 37.5606ZM126.014 35.5753C125.518 34.2453 124.006 31.787 120.917 31.787C117.849 31.787 115.301 34.1992 115.301 37.7412C115.301 41.0788 117.827 43.6954 121.209 43.6954C123.939 43.6954 125.518 42.0266 126.172 41.0564L124.142 39.7025C123.466 40.6951 122.541 41.349 121.209 41.349C119.879 41.349 118.931 40.74 118.322 39.5458L126.284 36.253L126.014 35.5753ZM62.5828 33.614V36.1396H68.6266C68.446 37.5605 67.9728 38.598 67.2518 39.3204C66.3712 40.1996 64.995 41.1684 62.5828 41.1684C58.8616 41.1684 55.951 38.1696 55.951 34.4484C55.951 30.7258 58.8616 27.727 62.5828 27.727C64.5904 27.727 66.0562 28.5166 67.1384 29.5316L68.9206 27.7494C67.4086 26.306 65.4024 25.2 62.5828 25.2C57.4854 25.2 53.2 29.351 53.2 34.4484C53.2 39.5458 57.4854 43.6954 62.5828 43.6954C65.3338 43.6954 67.4086 42.7938 69.0326 41.1012C70.7014 39.4324 71.2208 37.0873 71.2208 35.1917C71.2208 34.6052 71.176 34.0648 71.085 33.614H62.5828ZM78.0934 41.349C76.2888 41.349 74.732 39.8608 74.732 37.7412C74.732 35.5978 76.2888 34.1319 78.0934 34.1319C79.8966 34.1319 81.4534 35.5978 81.4534 37.7412C81.4534 39.8608 79.8966 41.349 78.0934 41.349ZM78.0934 31.787C74.7992 31.787 72.1154 34.2902 72.1154 37.7412C72.1154 41.1684 74.7992 43.6954 78.0934 43.6954C81.3862 43.6954 84.07 41.1684 84.07 37.7412C84.07 34.2902 81.3862 31.787 78.0934 31.787ZM91.1316 41.349C89.327 41.349 87.7702 39.8608 87.7702 37.7412C87.7702 35.5978 89.327 34.1319 91.1316 34.1319C92.9362 34.1319 94.4916 35.5978 94.4916 37.7412C94.4916 39.8608 92.9362 41.349 91.1316 41.349ZM91.1316 31.787C87.8388 31.787 85.155 34.2902 85.155 37.7412C85.155 41.1684 87.8388 43.6954 91.1316 43.6954C94.4244 43.6954 97.1082 41.1684 97.1082 37.7412C97.1082 34.2902 94.4244 31.787 91.1316 31.787Z" fill="#FFFFFE"/>
<path d="M60.8597 14.5396V17.8188C60.7489 17.9828 60.5726 18.1674 60.3306 18.3725C60.0886 18.5734 59.7543 18.7498 59.3277 18.9016C58.9053 19.0492 58.3598 19.123 57.6912 19.123C57.1457 19.123 56.6433 19.0287 56.1839 18.84C55.7286 18.6473 55.3328 18.3684 54.9965 18.0033C54.6643 17.6342 54.4059 17.1871 54.2213 16.6621C54.0408 16.133 53.9506 15.5342 53.9506 14.8656V14.1704C53.9506 13.5019 54.0285 12.9051 54.1844 12.3801C54.3443 11.8551 54.5781 11.4101 54.8857 11.045C55.1934 10.6759 55.5707 10.397 56.0178 10.2083C56.4648 10.0155 56.9775 9.91914 57.5559 9.91914C58.2408 9.91914 58.813 10.0381 59.2724 10.276C59.7358 10.5098 60.0968 10.8338 60.3552 11.248C60.6177 11.6623 60.7858 12.134 60.8597 12.6631H59.6723C59.6189 12.3391 59.5123 12.0438 59.3523 11.7771C59.1965 11.5105 58.9729 11.2973 58.6817 11.1373C58.3905 10.9732 58.0152 10.8912 57.5559 10.8912C57.1416 10.8912 56.7827 10.9671 56.4792 11.1188C56.1757 11.2706 55.9255 11.488 55.7286 11.771C55.5317 12.054 55.3841 12.3965 55.2856 12.7984C55.1913 13.2004 55.1441 13.6536 55.1441 14.1581V14.8656C55.1441 15.3824 55.2036 15.8438 55.3226 16.2499C55.4456 16.656 55.6199 17.0025 55.8455 17.2896C56.0711 17.5727 56.3397 17.788 56.6515 17.9356C56.9673 18.0833 57.3159 18.1571 57.6974 18.1571C58.1198 18.1571 58.4623 18.1223 58.7248 18.0525C58.9873 17.9787 59.1924 17.8926 59.34 17.7941C59.4877 17.6916 59.6005 17.5952 59.6784 17.505V15.4993H57.6051V14.5396H60.8597ZM68.1413 18.0341V19H63.3979V18.0341H68.1413ZM63.6378 10.0422V19H62.4504V10.0422H63.6378ZM67.5138 13.8936V14.8595H63.3979V13.8936H67.5138ZM68.0798 10.0422V11.0143H63.3979V10.0422H68.0798ZM72.6668 10.0422V19H71.4978V10.0422H72.6668ZM75.546 10.0422V11.0143H68.6247V10.0422H75.546ZM80.2718 10.0422V19H79.0844V10.0422H80.2718ZM85.1786 10.0422V19H84.0097V10.0422H85.1786ZM88.0579 10.0422V11.0143H81.1366V10.0422H88.0579ZM98.4069 14.2381V14.8041C98.4069 15.4768 98.3228 16.0797 98.1547 16.6129C97.9865 17.1461 97.7445 17.5993 97.4287 17.9726C97.1129 18.3458 96.7335 18.6309 96.2905 18.8277C95.8517 19.0246 95.3595 19.123 94.814 19.123C94.2849 19.123 93.7988 19.0246 93.3559 18.8277C92.917 18.6309 92.5355 18.3458 92.2115 17.9726C91.8916 17.5993 91.6434 17.1461 91.4671 16.6129C91.2907 16.0797 91.2025 15.4768 91.2025 14.8041V14.2381C91.2025 13.5654 91.2887 12.9646 91.4609 12.4354C91.6373 11.9022 91.8854 11.449 92.2054 11.0758C92.5253 10.6984 92.9047 10.4113 93.3435 10.2145C93.7865 10.0176 94.2726 9.91914 94.8017 9.91914C95.3472 9.91914 95.8393 10.0176 96.2782 10.2145C96.7212 10.4113 97.1006 10.6984 97.4164 11.0758C97.7363 11.449 97.9804 11.9022 98.1485 12.4354C98.3208 12.9646 98.4069 13.5654 98.4069 14.2381ZM97.2318 14.8041V14.2258C97.2318 13.6926 97.1765 13.2209 97.0657 12.8107C96.9591 12.4006 96.8012 12.0561 96.592 11.7771C96.3828 11.4982 96.1265 11.287 95.8229 11.1435C95.5235 10.9999 95.1831 10.9281 94.8017 10.9281C94.4325 10.9281 94.0982 10.9999 93.7988 11.1435C93.5035 11.287 93.2492 11.4982 93.0359 11.7771C92.8267 12.0561 92.6647 12.4006 92.5499 12.8107C92.4351 13.2209 92.3776 13.6926 92.3776 14.2258V14.8041C92.3776 15.3414 92.4351 15.8172 92.5499 16.2314C92.6647 16.6416 92.8288 16.9882 93.0421 17.2712C93.2595 17.5501 93.5158 17.7613 93.8111 17.9049C94.1105 18.0484 94.4448 18.1202 94.814 18.1202C95.1995 18.1202 95.542 18.0484 95.8414 17.9049C96.1408 17.7613 96.3931 17.5501 96.5981 17.2712C96.8073 16.9882 96.9652 16.6416 97.0719 16.2314C97.1785 15.8172 97.2318 15.3414 97.2318 14.8041ZM106.698 10.0422V19H105.504L100.994 12.0909V19H99.807V10.0422H100.994L105.522 16.9697V10.0422H106.698Z" fill="white"/>
<defs>
<linearGradient id="paint0_linear_419_11042" x1="42.1243" y1="28.0004" x2="30.6432" y2="28.0004" gradientUnits="userSpaceOnUse">
<stop stop-color="#FFBC00"/>
<stop offset="1" stop-color="#FFDA03"/>
</linearGradient>
<linearGradient id="paint1_linear_419_11042" x1="33.3404" y1="33.5591" x2="18.3555" y2="45.9107" gradientUnits="userSpaceOnUse">
<stop stop-color="#E22652"/>
<stop offset="1" stop-color="#FF3A44"/>
</linearGradient>
<linearGradient id="paint2_linear_419_11042" x1="15.8489" y1="12.6647" x2="25.8397" y2="21.4496" gradientUnits="userSpaceOnUse">
<stop stop-color="#0ED574"/>
<stop offset="1" stop-color="#07F076"/>
</linearGradient>
</defs>
</svg>
