<svg width="162" height="57" viewBox="0 0 162 57" fill="none" xmlns="http://www.w3.org/2000/svg">
<g id="play store">
<path id="Path 8" d="M155.363 57H6.92578C3.60078 57 0.988281 53.865 0.988281 49.875V7.125C0.988281 3.135 3.60078 0 6.92578 0H155.363C158.688 0 161.301 3.135 161.301 7.125V49.875C161.301 53.865 158.688 57 155.363 57Z" fill="black"/>
<g id="Path 10">
<path fill-rule="evenodd" clip-rule="evenodd" d="M85.7789 20.3059C86.8476 20.3059 87.6789 19.9496 88.3914 19.2371C89.1039 18.5246 89.4602 17.6934 89.4602 16.6246C89.4602 15.5559 89.1039 14.7246 88.3914 14.0121C87.6789 13.2996 86.8477 12.9434 85.7789 12.9434C84.7102 12.9434 83.8789 13.2996 83.1664 14.0121C82.4539 14.7246 82.0977 15.5559 82.0977 16.6246C82.0977 17.6934 82.4539 18.5246 83.1664 19.2371C83.8789 19.9496 84.7102 20.3059 85.7789 20.3059ZM76.9906 20.187H76.1594V13.8933H74.1406V13.062H79.0094V13.8933H76.9906V20.187ZM72.1211 13.0621V20.1871H73.0711V13.0621H72.1211ZM83.8781 18.6432C84.3531 19.1182 85.0656 19.4744 85.7781 19.4744C86.4906 19.4744 87.2031 19.2369 87.6781 18.6432C88.1531 18.1682 88.5094 17.4557 88.5094 16.6244C88.5094 15.7932 88.2719 15.0807 87.6781 14.6057C87.2031 14.1307 86.4906 13.7744 85.7781 13.7744C85.0656 13.7744 84.3531 14.0119 83.8781 14.6057C83.4031 15.0807 83.0469 15.7932 83.0469 16.6244C83.0469 17.4557 83.2844 18.1682 83.8781 18.6432ZM90.7656 13.062V20.187H91.5969V14.3683L95.2781 20.187H96.2281V13.062H95.2781V18.6433L91.8344 13.062H90.7656Z" fill="white"/>
<path d="M88.3914 19.2371L88.3207 19.1664L88.3207 19.1664L88.3914 19.2371ZM88.3914 14.0121L88.3207 14.0828L88.3207 14.0828L88.3914 14.0121ZM83.1664 14.0121L83.2371 14.0828L83.2371 14.0828L83.1664 14.0121ZM83.1664 19.2371L83.2371 19.1664L83.2371 19.1664L83.1664 19.2371ZM76.1594 20.187H76.0594V20.287H76.1594V20.187ZM76.9906 20.187V20.287H77.0906V20.187H76.9906ZM76.1594 13.8933H76.2594V13.7933H76.1594V13.8933ZM74.1406 13.8933H74.0406V13.9933H74.1406V13.8933ZM74.1406 13.062V12.962H74.0406V13.062H74.1406ZM79.0094 13.062H79.1094V12.962H79.0094V13.062ZM79.0094 13.8933V13.9933H79.1094V13.8933H79.0094ZM76.9906 13.8933V13.7933H76.8906V13.8933H76.9906ZM72.1211 20.1871H72.0211V20.2871H72.1211V20.1871ZM72.1211 13.0621V12.9621H72.0211V13.0621H72.1211ZM73.0711 20.1871V20.2871H73.1711V20.1871H73.0711ZM73.0711 13.0621H73.1711V12.9621H73.0711V13.0621ZM83.8781 18.6432L83.9493 18.572L83.9406 18.5651L83.8781 18.6432ZM87.6781 18.6432L87.607 18.572L87.6 18.5807L87.6781 18.6432ZM87.6781 14.6057L87.607 14.6768L87.6157 14.6838L87.6781 14.6057ZM83.8781 14.6057L83.9493 14.6768L83.9562 14.6681L83.8781 14.6057ZM90.7656 20.187H90.6656V20.287H90.7656V20.187ZM90.7656 13.062V12.962H90.6656V13.062H90.7656ZM91.5969 20.187V20.287H91.6969V20.187H91.5969ZM91.5969 14.3683L91.6814 14.3148L91.4969 14.0232V14.3683H91.5969ZM95.2781 20.187L95.1936 20.2405L95.2231 20.287H95.2781V20.187ZM96.2281 20.187V20.287H96.3281V20.187H96.2281ZM96.2281 13.062H96.3281V12.962H96.2281V13.062ZM95.2781 13.062V12.962H95.1781V13.062H95.2781ZM95.2781 18.6433L95.193 18.6958L95.3781 18.9958V18.6433H95.2781ZM91.8344 13.062L91.9195 13.0095L91.8902 12.962H91.8344V13.062ZM88.3207 19.1664C87.627 19.8601 86.8212 20.2059 85.7789 20.2059V20.4059C86.8741 20.4059 87.7308 20.0391 88.4621 19.3078L88.3207 19.1664ZM89.3602 16.6246C89.3602 17.6669 89.0144 18.4727 88.3207 19.1664L88.4621 19.3078C89.1934 18.5765 89.5602 17.7198 89.5602 16.6246H89.3602ZM88.3207 14.0828C89.0144 14.7765 89.3602 15.5823 89.3602 16.6246H89.5602C89.5602 15.5294 89.1934 14.6727 88.4621 13.9414L88.3207 14.0828ZM85.7789 13.0434C86.8212 13.0434 87.627 13.3891 88.3207 14.0828L88.4621 13.9414C87.7308 13.2101 86.8741 12.8434 85.7789 12.8434V13.0434ZM83.2371 14.0828C83.9308 13.3891 84.7366 13.0434 85.7789 13.0434V12.8434C84.6837 12.8434 83.827 13.2101 83.0957 13.9414L83.2371 14.0828ZM82.1977 16.6246C82.1977 15.5823 82.5434 14.7765 83.2371 14.0828L83.0957 13.9414C82.3644 14.6727 81.9977 15.5294 81.9977 16.6246H82.1977ZM83.2371 19.1664C82.5434 18.4727 82.1977 17.6669 82.1977 16.6246H81.9977C81.9977 17.7198 82.3644 18.5765 83.0957 19.3078L83.2371 19.1664ZM85.7789 20.2059C84.7366 20.2059 83.9308 19.8601 83.2371 19.1664L83.0957 19.3078C83.827 20.0391 84.6837 20.4059 85.7789 20.4059V20.2059ZM76.1594 20.287H76.9906V20.087H76.1594V20.287ZM76.0594 13.8933V20.187H76.2594V13.8933H76.0594ZM74.1406 13.9933H76.1594V13.7933H74.1406V13.9933ZM74.0406 13.062V13.8933H74.2406V13.062H74.0406ZM79.0094 12.962H74.1406V13.162H79.0094V12.962ZM79.1094 13.8933V13.062H78.9094V13.8933H79.1094ZM76.9906 13.9933H79.0094V13.7933H76.9906V13.9933ZM77.0906 20.187V13.8933H76.8906V20.187H77.0906ZM72.2211 20.1871V13.0621H72.0211V20.1871H72.2211ZM73.0711 20.0871H72.1211V20.2871H73.0711V20.0871ZM72.9711 13.0621V20.1871H73.1711V13.0621H72.9711ZM72.1211 13.1621H73.0711V12.9621H72.1211V13.1621ZM85.7781 19.3744C85.0968 19.3744 84.4087 19.0323 83.9488 18.5725L83.8074 18.7139C84.2976 19.204 85.0344 19.5744 85.7781 19.5744V19.3744ZM87.6 18.5807C87.1492 19.1443 86.4696 19.3744 85.7781 19.3744V19.5744C86.5116 19.5744 87.2571 19.3296 87.7562 18.7056L87.6 18.5807ZM88.4094 16.6244C88.4094 17.4267 88.0655 18.1144 87.6074 18.5725L87.7488 18.7139C88.2408 18.2219 88.6094 17.4846 88.6094 16.6244H88.4094ZM87.6157 14.6838C88.1777 15.1334 88.4094 15.8116 88.4094 16.6244H88.6094C88.6094 15.7747 88.3661 15.0279 87.7406 14.5276L87.6157 14.6838ZM85.7781 13.8744C86.4594 13.8744 87.1476 14.2165 87.6074 14.6764L87.7488 14.535C87.2587 14.0448 86.5218 13.6744 85.7781 13.6744V13.8744ZM83.9562 14.6681C84.4071 14.1046 85.0866 13.8744 85.7781 13.8744V13.6744C85.0446 13.6744 84.2992 13.9193 83.8 14.5432L83.9562 14.6681ZM83.1469 16.6244C83.1469 15.8221 83.4908 15.1344 83.9488 14.6764L83.8074 14.535C83.3155 15.0269 82.9469 15.7642 82.9469 16.6244H83.1469ZM83.9406 18.5651C83.3786 18.1154 83.1469 17.4372 83.1469 16.6244H82.9469C82.9469 17.4741 83.1902 18.2209 83.8157 18.7213L83.9406 18.5651ZM90.8656 20.187V13.062H90.6656V20.187H90.8656ZM91.5969 20.087H90.7656V20.287H91.5969V20.087ZM91.4969 14.3683V20.187H91.6969V14.3683H91.4969ZM95.3626 20.1335L91.6814 14.3148L91.5124 14.4217L95.1936 20.2405L95.3626 20.1335ZM96.2281 20.087H95.2781V20.287H96.2281V20.087ZM96.1281 13.062V20.187H96.3281V13.062H96.1281ZM95.2781 13.162H96.2281V12.962H95.2781V13.162ZM95.3781 18.6433V13.062H95.1781V18.6433H95.3781ZM91.7493 13.1145L95.193 18.6958L95.3632 18.5908L91.9195 13.0095L91.7493 13.1145ZM90.7656 13.162H91.8344V12.962H90.7656V13.162Z" fill="white"/>
</g>
<path id="Path 11" fill-rule="evenodd" clip-rule="evenodd" d="M57.6324 32.1816V34.3191H62.7387C62.6199 35.5066 62.1449 36.4566 61.5512 37.0504C60.8387 37.7629 59.6512 38.5941 57.6324 38.5941C54.4262 38.5941 52.0512 36.1004 52.0512 32.8941C52.0512 29.6879 54.5449 27.1941 57.6324 27.1941C59.2949 27.1941 60.6012 27.9066 61.5512 28.7379L63.0949 27.1941C61.7887 26.0066 60.1262 25.0566 57.7512 25.0566C53.4762 25.0566 49.7949 28.6191 49.7949 32.8941C49.7949 37.1691 53.4762 40.7316 57.7512 40.7316C60.1262 40.7316 61.7887 40.0191 63.2137 38.4754C64.6387 37.0504 65.1137 35.0316 65.1137 33.4879C65.1137 33.0129 65.1137 32.5379 64.9949 32.1816L57.6324 32.1816ZM70.8152 30.6377C67.9652 30.6377 65.709 32.7752 65.709 35.7439C65.709 38.5939 67.9652 40.8502 70.8152 40.8502C73.6652 40.8502 75.9215 38.7127 75.9215 35.7439C75.9215 32.6564 73.6652 30.6377 70.8152 30.6377ZM76.752 35.7439C76.752 32.7752 79.0082 30.6377 81.8582 30.6377C84.7082 30.6377 86.9645 32.6564 86.9645 35.7439C86.9645 38.7127 84.7082 40.8502 81.8582 40.8502C79.0082 40.8502 76.752 38.5939 76.752 35.7439ZM79.0078 35.6256C79.0078 37.4068 80.3141 38.7131 81.8578 38.7131C83.4016 38.7131 84.7078 37.4068 84.7078 35.6256C84.7078 33.7256 83.4016 32.5381 81.8578 32.5381C80.3141 32.5381 79.0078 33.8443 79.0078 35.6256ZM67.9629 35.6256C67.9629 37.4068 69.2692 38.7131 70.8129 38.7131C72.3566 38.7131 73.6629 37.4068 73.6629 35.6256C73.6629 33.7256 72.3566 32.5381 70.8129 32.5381C69.2691 32.5381 67.9629 33.8443 67.9629 35.6256ZM107.271 30.6377C109.884 30.6377 111.071 32.6564 111.546 33.8439L111.784 34.4377L105.015 37.2877C105.609 38.3565 106.321 38.8314 107.509 38.8314C108.696 38.8314 109.409 38.2377 110.003 37.4064L111.665 38.5939C111.19 39.4252 109.765 40.8502 107.509 40.8502C104.659 40.8502 102.521 38.5939 102.521 35.7439C102.521 32.6564 104.659 30.6377 107.271 30.6377ZM104.658 35.5068C104.658 33.6068 106.202 32.5381 107.271 32.5381C108.102 32.5381 108.933 33.0131 109.171 33.6068L104.658 35.5068ZM101.333 40.3754H99.0764V25.5317H101.333V40.3754ZM95.5141 31.7065C94.9203 31.1128 93.9703 30.519 92.7828 30.519C90.2891 30.519 87.9141 32.7753 87.9141 35.6253C87.9141 38.4753 90.1703 40.6128 92.7828 40.6128C93.9703 40.6128 94.9203 40.019 95.3953 39.4253H95.5141V40.1378C95.5141 42.0378 94.4453 43.1065 92.7828 43.1065C91.4766 43.1065 90.5265 42.1565 90.2891 41.3253L88.3891 42.1565C88.9828 43.4628 90.4078 45.1253 92.9016 45.1253C95.5141 45.1253 97.6516 43.5815 97.6516 39.9003V30.8753H95.5141L95.5141 31.7065ZM90.0527 35.6256C90.0527 37.4068 91.359 38.7131 92.9027 38.7131C94.4465 38.7131 95.634 37.4068 95.634 35.6256C95.634 33.8443 94.4465 32.5381 92.9027 32.5381C91.359 32.5381 90.0527 33.8443 90.0527 35.6256ZM121.877 25.5317H116.533V40.3755H118.789V34.7942H121.877C124.371 34.7942 126.746 33.013 126.746 30.163C126.746 27.313 124.371 25.5317 121.877 25.5317ZM118.789 32.6565H121.995C123.539 32.6565 124.489 31.3503 124.608 30.044C124.608 28.9753 123.658 27.5503 121.995 27.5503H118.789V32.6565ZM135.653 30.519C133.99 30.519 132.328 31.2315 131.734 32.7753L133.753 33.6065C134.228 32.7753 134.94 32.5378 135.771 32.5378C136.959 32.5378 138.028 33.2503 138.146 34.4378V34.5565C137.79 34.319 136.84 33.9628 135.89 33.9628C133.753 33.9628 131.615 35.1503 131.615 37.2878C131.615 39.3065 133.396 40.6128 135.296 40.6128C136.84 40.6128 137.553 39.9003 138.146 39.1878H138.265V40.3753H140.403V34.6753C140.165 32.0628 138.146 30.519 135.653 30.519ZM133.633 37.4065C133.633 38.3565 134.702 38.7128 135.414 38.7128C136.602 38.7128 137.789 37.7628 138.027 36.3378C137.967 36.3139 137.908 36.29 137.85 36.2664L137.85 36.2662L137.85 36.2661C137.332 36.0547 136.862 35.8628 136.008 35.8628C134.939 35.8628 133.633 36.219 133.633 37.4065ZM147.883 30.8755L145.389 37.288H145.271L142.658 30.8755H140.283L144.202 39.9005L141.946 44.888H144.202L150.258 30.8755H147.883ZM130.188 40.3755H127.932V25.5317H130.188V40.3755Z" fill="white"/>
<g id="Group 4">
<path id="Path 12" d="M13.3383 13.6558C12.982 14.012 12.8633 14.6058 12.8633 15.3183V41.562C12.8633 42.2745 13.1008 42.8683 13.457 43.2245L13.5758 43.3433L28.3008 28.6183V28.3808L13.3383 13.6558Z" fill="url(#paint0_linear_21_1275)"/>
<path id="Path 13" d="M33.0523 33.606L28.1836 28.7372V28.381L33.0523 23.5122L33.1711 23.631L38.9898 26.956C40.6523 27.906 40.6523 29.4497 38.9898 30.3997L33.0523 33.606Z" fill="url(#paint1_linear_21_1275)"/>
<path id="Path 14" d="M33.1711 33.4875L28.1836 28.5L13.3398 43.3438C13.9336 43.9375 14.7648 43.9375 15.8336 43.4625L33.1711 33.4875Z" fill="url(#paint2_linear_21_1275)"/>
<path id="Path 15" d="M33.1711 23.512L15.8336 13.6557C14.7648 13.062 13.9336 13.1807 13.3398 13.7745L28.1836 28.4995L33.1711 23.512H33.1711Z" fill="url(#paint3_linear_21_1275)"/>
<path id="Path 16" opacity="0.2" d="M33.0523 33.3682L15.8336 43.1057C14.8836 43.6994 14.0523 43.5807 13.4586 43.1057L13.3398 43.2244L13.4586 43.3432C14.0523 43.8182 14.8836 43.9369 15.8336 43.3432L33.0523 33.3682Z" fill="black"/>
<path id="Path 17" opacity="0.12" fill-rule="evenodd" clip-rule="evenodd" d="M33.0508 33.3688L38.9883 30.0438C39.7008 29.5688 40.1758 29.0937 40.1758 28.5C40.1758 29.0937 39.8195 29.6875 38.9883 30.1625L33.1695 33.4875L33.0508 33.3688ZM12.8633 41.4438C12.8633 41.612 12.8699 41.7736 12.8847 41.9271C12.8706 41.8097 12.8633 41.6879 12.8633 41.5625V41.4438ZM12.8847 41.9271C12.9423 42.4073 13.1121 42.8152 13.3498 43.1063L12.8847 41.9271ZM13.3498 43.1063H13.457V43.225C13.42 43.188 13.3842 43.1484 13.3498 43.1063Z" fill="black"/>
<path id="Path 18" opacity="0.25" d="M15.832 13.7745L38.9883 26.9558C39.7008 27.4308 40.1758 27.9058 40.1758 28.4995C40.1758 27.9058 39.8195 27.312 38.9883 26.837L15.832 13.6558C14.1695 12.7058 12.8633 13.4183 12.8633 15.3183V15.437C12.8633 13.6558 14.1695 12.8245 15.832 13.7745Z" fill="white"/>
</g>
</g>
<defs>
<linearGradient id="paint0_linear_21_1275" x1="32.0572" y1="25.1181" x2="8.46388" y2="18.7388" gradientUnits="userSpaceOnUse">
<stop stop-color="#00A0FF"/>
<stop offset="0.007" stop-color="#00A1FF"/>
<stop offset="0.26" stop-color="#00BEFF"/>
<stop offset="0.512" stop-color="#00D2FF"/>
<stop offset="0.76" stop-color="#00DFFF"/>
<stop offset="1" stop-color="#00E3FF"/>
</linearGradient>
<linearGradient id="paint1_linear_21_1275" x1="41.1677" y1="18.8421" x2="12.4338" y2="18.8421" gradientUnits="userSpaceOnUse">
<stop stop-color="#FFE000"/>
<stop offset="0.409" stop-color="#FFBD00"/>
<stop offset="0.775" stop-color="#FFA500"/>
<stop offset="1" stop-color="#FF9C00"/>
</linearGradient>
<linearGradient id="paint2_linear_21_1275" x1="47.9805" y1="17.7199" x2="29.0218" y2="-14.1098" gradientUnits="userSpaceOnUse">
<stop stop-color="#FF3A44"/>
<stop offset="1" stop-color="#C31162"/>
</linearGradient>
<linearGradient id="paint3_linear_21_1275" x1="17.5103" y1="59.0509" x2="25.9097" y2="44.8172" gradientUnits="userSpaceOnUse">
<stop stop-color="#32A071"/>
<stop offset="0.069" stop-color="#2DA771"/>
<stop offset="0.476" stop-color="#15CF74"/>
<stop offset="0.801" stop-color="#06E775"/>
<stop offset="1" stop-color="#00F076"/>
</linearGradient>
</defs>
</svg>
