<svg width="191" height="55" viewBox="0 0 191 55" fill="none" xmlns="http://www.w3.org/2000/svg">
<g id="Group">
<path id="BG" d="M183.463 55H7.53704C3.66843 55 0.5 51.9045 0.5 48.125V6.875C0.5 3.09547 3.66843 0 7.53704 0H183.463C187.332 0 190.5 3.09547 190.5 6.875V48.125C190.5 51.9045 187.332 55 183.463 55Z" fill="black"/>
<g id="Icon">
<path id="Vector" d="M15.1863 10.3658C14.7729 10.7886 14.5336 11.4469 14.5336 12.2994V42.7075C14.5336 43.56 14.7729 44.2183 15.1863 44.6411L15.2884 44.7339L32.7296 27.7011V27.2989L15.2884 10.2661L15.1863 10.3658Z" fill="url(#paint0_linear_414_2768)"/>
<path id="Vector_2" d="M38.5369 33.3815L32.7296 27.701V27.2988L38.5439 21.6183L38.6741 21.6923L45.5599 25.5199C47.525 26.6062 47.525 28.3937 45.5599 29.4868L38.6741 33.3076L38.5369 33.3815Z" fill="url(#paint1_linear_414_2768)"/>
<path id="Vector_3" d="M38.6742 33.3077L32.7296 27.5L15.1863 44.6411C15.839 45.3114 16.9033 45.3922 18.1137 44.7219L38.6742 33.3077Z" fill="url(#paint2_linear_414_2768)"/>
<path id="Vector_4" d="M38.6742 21.6923L18.1137 10.2781C16.9033 9.61469 15.839 9.69547 15.1863 10.3658L32.7296 27.5L38.6742 21.6923Z" fill="url(#paint3_linear_414_2768)"/>
</g>
<g id="GET IT ON">
<path id="G" d="M67.2357 14.0852C67.2357 15.2334 66.8839 16.1529 66.1907 16.8387C65.3938 17.6516 64.3558 18.0607 63.0839 18.0607C61.8682 18.0607 60.8303 17.6448 59.9788 16.8249C59.1255 15.993 58.6998 14.9721 58.6998 13.7501C58.6998 12.528 59.1255 11.5071 59.9788 10.6821C60.8303 9.85539 61.8682 9.43945 63.0839 9.43945C63.6891 9.43945 64.2661 9.56148 64.8167 9.78836C65.3656 10.017 65.8125 10.3263 66.1362 10.7079L65.4008 11.4332C64.8361 10.7818 64.0673 10.4604 63.0839 10.4604C62.1972 10.4604 61.4284 10.7629 60.7757 11.373C60.1301 11.9849 59.8064 12.7773 59.8064 13.7501C59.8064 14.7229 60.1301 15.5221 60.7757 16.134C61.4284 16.7373 62.1972 17.0466 63.0839 17.0466C64.0251 17.0466 64.8167 16.7373 65.4413 16.1271C65.853 15.7232 66.0869 15.1663 66.1485 14.4548H63.0839V13.4613H67.1724C67.2217 13.6762 67.2357 13.8841 67.2357 14.0852Z" fill="white" stroke="white" stroke-width="0.0562963" stroke-miterlimit="10"/>
<path id="E" d="M73.7221 10.6409H69.8817V13.2534H73.3439V14.2468H69.8817V16.8593H73.7221V17.8717H68.7944V9.62854H73.7221V10.6409Z" fill="white" stroke="white" stroke-width="0.0562963" stroke-miterlimit="10"/>
<path id="T" d="M78.2997 17.8717H77.2125V10.6409H74.8568V9.62854H80.6571V10.6409H78.2997V17.8717Z" fill="white" stroke="white" stroke-width="0.0562963" stroke-miterlimit="10"/>
<path id="I" d="M84.8547 17.8717V9.62854H85.9402V17.8717H84.8547Z" fill="white" stroke="white" stroke-width="0.0562963" stroke-miterlimit="10"/>
<path id="T_2" d="M90.7517 17.8717H89.6733V10.6409H87.3089V9.62854H93.1162V10.6409H90.7517V17.8717Z" fill="white" stroke="white" stroke-width="0.0562963" stroke-miterlimit="10"/>
<path id="O" d="M104.097 16.8112C103.265 17.6448 102.234 18.0607 101.005 18.0607C99.7679 18.0607 98.737 17.6448 97.9049 16.8112C97.0745 15.9793 96.6611 14.9584 96.6611 13.7501C96.6611 12.5418 97.0745 11.5209 97.9049 10.689C98.737 9.85539 99.7679 9.43945 101.005 9.43945C102.227 9.43945 103.258 9.85539 104.09 10.6959C104.928 11.5346 105.341 12.5487 105.341 13.7501C105.341 14.9584 104.928 15.9793 104.097 16.8112ZM98.7089 16.1202C99.3352 16.7373 100.097 17.0466 101.005 17.0466C101.905 17.0466 102.674 16.7373 103.294 16.1202C103.918 15.5032 104.235 14.7109 104.235 13.7501C104.235 12.7893 103.918 11.997 103.294 11.3799C102.674 10.7629 101.905 10.4535 101.005 10.4535C100.097 10.4535 99.3352 10.7629 98.7089 11.3799C98.0843 11.997 97.7677 12.7893 97.7677 13.7501C97.7677 14.7109 98.0843 15.5032 98.7089 16.1202Z" fill="white" stroke="white" stroke-width="0.0562963" stroke-miterlimit="10"/>
<path id="N" d="M106.867 17.8717V9.62854H108.186L112.289 16.0395H112.336L112.289 14.4548V9.62854H113.374V17.8717H112.241L107.945 11.1445H107.897L107.945 12.736V17.8717H106.867Z" fill="white" stroke="white" stroke-width="0.0562963" stroke-miterlimit="10"/>
</g>
<g id="Google Play">
<path id="Google Play_2" d="M96.3937 29.9097C93.088 29.9097 90.3876 32.3675 90.3876 35.7586C90.3876 39.1222 93.088 41.6058 96.3937 41.6058C99.7064 41.6058 102.407 39.1222 102.407 35.7586C102.407 32.3675 99.7064 29.9097 96.3937 29.9097ZM96.3937 39.3027C94.5799 39.3027 93.0194 37.84 93.0194 35.7586C93.0194 33.6497 94.5799 32.2128 96.3937 32.2128C98.2075 32.2128 99.775 33.6497 99.775 35.7586C99.775 37.84 98.2075 39.3027 96.3937 39.3027ZM83.289 29.9097C79.9763 29.9097 77.2829 32.3675 77.2829 35.7586C77.2829 39.1222 79.9763 41.6058 83.289 41.6058C86.5999 41.6058 89.2951 39.1222 89.2951 35.7586C89.2951 32.3675 86.5999 29.9097 83.289 29.9097ZM83.289 39.3027C81.4734 39.3027 79.9077 37.84 79.9077 35.7586C79.9077 33.6497 81.4734 32.2128 83.289 32.2128C85.1028 32.2128 86.6632 33.6497 86.6632 35.7586C86.6632 37.84 85.1028 39.3027 83.289 39.3027ZM67.6949 31.7024V34.1877H73.7696C73.5919 35.5764 73.1169 36.5974 72.3886 37.3089C71.5019 38.1683 70.1209 39.1222 67.6949 39.1222C63.9565 39.1222 61.0291 36.1745 61.0291 32.5222C61.0291 28.8699 63.9565 25.9222 67.6949 25.9222C69.7163 25.9222 71.187 26.6939 72.2725 27.6942L74.0652 25.9428C72.5469 24.5266 70.5273 23.4386 67.6949 23.4386C62.5684 23.4386 58.26 27.5138 58.26 32.5222C58.26 37.5306 62.5684 41.6058 67.6949 41.6058C70.4657 41.6058 72.5469 40.7189 74.1831 39.0552C75.8596 37.4172 76.3821 35.1141 76.3821 33.2544C76.3821 32.6769 76.3329 32.1458 76.2449 31.7024H67.6949ZM131.461 33.6291C130.967 32.3211 129.441 29.9097 126.335 29.9097C123.256 29.9097 120.693 32.2799 120.693 35.7586C120.693 39.0345 123.229 41.6058 126.63 41.6058C129.38 41.6058 130.967 39.9678 131.619 39.0139L129.579 37.6853C128.898 38.6581 127.971 39.3027 126.63 39.3027C125.298 39.3027 124.343 38.7063 123.731 37.5306L131.737 34.2942L131.461 33.6291ZM123.298 35.5764C123.229 33.3214 125.091 32.1664 126.424 32.1664C127.469 32.1664 128.356 32.6769 128.651 33.4074L123.298 35.5764ZM116.791 41.25H119.422V24.0625H116.791V41.25ZM112.48 31.2125H112.392C111.801 30.5284 110.674 29.9097 109.245 29.9097C106.247 29.9097 103.506 32.4809 103.506 35.7775C103.506 39.0552 106.247 41.6058 109.245 41.6058C110.674 41.6058 111.801 40.9819 112.392 40.2772H112.48V41.1159C112.48 43.352 111.258 44.5534 109.286 44.5534C107.678 44.5534 106.68 43.4191 106.268 42.4652L103.98 43.3984C104.639 44.9488 106.386 46.8566 109.286 46.8566C112.371 46.8566 114.975 45.0828 114.975 40.767V30.2655H112.48V31.2125ZM109.47 39.3027C107.656 39.3027 106.138 37.8194 106.138 35.7775C106.138 33.7167 107.656 32.2128 109.47 32.2128C111.258 32.2128 112.667 33.7167 112.667 35.7775C112.667 37.8194 111.258 39.3027 109.47 39.3027ZM143.783 24.0625H137.488V41.25H140.113V34.7377H143.783C146.698 34.7377 149.557 32.6769 149.557 29.3992C149.557 26.1233 146.691 24.0625 143.783 24.0625ZM143.851 32.3469H140.113V26.4533H143.851C145.811 26.4533 146.93 28.0431 146.93 29.3992C146.93 30.7295 145.811 32.3469 143.851 32.3469ZM160.077 29.877C158.181 29.877 156.208 30.6952 155.397 32.5084L157.727 33.4624C158.228 32.5084 159.15 32.1991 160.125 32.1991C161.486 32.1991 162.867 32.9983 162.888 34.4094V34.5899C162.413 34.3217 161.397 33.9247 160.146 33.9247C157.637 33.9247 155.081 35.2739 155.081 37.7919C155.081 40.095 157.136 41.5783 159.446 41.5783C161.212 41.5783 162.186 40.7997 162.799 39.8939H162.888V41.2225H165.423V34.6294C165.423 31.582 163.094 29.877 160.077 29.877ZM159.76 39.2958C158.902 39.2958 157.706 38.8799 157.706 37.84C157.706 36.5097 159.197 35.9992 160.489 35.9992C161.645 35.9992 162.186 36.2484 162.888 36.5767C162.683 38.1683 161.28 39.2958 159.76 39.2958ZM174.66 30.2534L171.642 37.7042H171.553L168.434 30.2534H165.603L170.29 40.6656L167.616 46.4595H170.358L177.58 30.2534H174.66ZM150.999 41.25H153.631V24.0625H150.999V41.25Z" fill="white"/>
</g>
</g>
<defs>
<linearGradient id="paint0_linear_414_2768" x1="31.1811" y1="43.0241" x2="8.11153" y2="19.4109" gradientUnits="userSpaceOnUse">
<stop stop-color="#00A0FF"/>
<stop offset="0.0066" stop-color="#00A1FF"/>
<stop offset="0.2601" stop-color="#00BEFF"/>
<stop offset="0.5122" stop-color="#00D2FF"/>
<stop offset="0.7604" stop-color="#00DFFF"/>
<stop offset="1" stop-color="#00E3FF"/>
</linearGradient>
<linearGradient id="paint1_linear_414_2768" x1="48.1187" y1="27.498" x2="14.0639" y2="27.498" gradientUnits="userSpaceOnUse">
<stop stop-color="#FFE000"/>
<stop offset="0.4087" stop-color="#FFBD00"/>
<stop offset="0.7754" stop-color="#FFA500"/>
<stop offset="1" stop-color="#FF9C00"/>
</linearGradient>
<linearGradient id="paint2_linear_414_2768" x1="35.4417" y1="24.3429" x2="4.15752" y2="-7.67865" gradientUnits="userSpaceOnUse">
<stop stop-color="#FF3A44"/>
<stop offset="1" stop-color="#C31162"/>
</linearGradient>
<linearGradient id="paint3_linear_414_2768" x1="10.7703" y1="54.7577" x2="24.7401" y2="40.4588" gradientUnits="userSpaceOnUse">
<stop stop-color="#32A071"/>
<stop offset="0.0685" stop-color="#2DA771"/>
<stop offset="0.4762" stop-color="#15CF74"/>
<stop offset="0.8009" stop-color="#06E775"/>
<stop offset="1" stop-color="#00F076"/>
</linearGradient>
</defs>
</svg>
