<svg width="67" height="67" viewBox="0 0 67 67" fill="none" xmlns="http://www.w3.org/2000/svg">
<g id="round">
<g id="Ellipse 421">
<path id="Vector" d="M33.5 67C52.0015 67 67 52.0015 67 33.5C67 14.9985 52.0015 0 33.5 0C14.9985 0 0 14.9985 0 33.5C0 52.0015 14.9985 67 33.5 67Z" fill="#C0F3DD"/>
</g>
<path id="Ellipse 422" d="M33.5 54C44.2696 54 53 45.2696 53 34.5C53 23.7304 44.2696 15 33.5 15C22.7304 15 14 23.7304 14 34.5C14 45.2696 22.7304 54 33.5 54Z" fill="#84E5BB"/>
<path id="Ellipse 425" d="M42 33.5C42 38.1944 38.1944 42 33.5 42C28.8056 42 25 38.1944 25 33.5C25 28.8056 28.8056 25 33.5 25C38.1944 25 42 28.8056 42 33.5Z" fill="#1DCE80" stroke="white" stroke-width="2"/>
</g>
</svg>
