<svg width="31" height="30" viewBox="0 0 31 30" fill="none" xmlns="http://www.w3.org/2000/svg">
<g id="icons/Smile/Filled">
<path id="Subtract" fill-rule="evenodd" clip-rule="evenodd" d="M28 15C28 21.9036 22.4036 27.5 15.5 27.5C8.59644 27.5 3 21.9036 3 15C3 8.09644 8.59644 2.5 15.5 2.5C22.4036 2.5 28 8.09644 28 15ZM11.7152 17.206C11.5529 16.535 10.8773 16.1227 10.2063 16.2851C9.53531 16.4474 9.12299 17.123 9.28535 17.794C9.61399 19.1522 10.42 20.3489 11.5516 21.1976C12.6819 22.0453 14.0743 22.5 15.5003 22.5C16.9262 22.5 18.3187 22.0453 19.449 21.1976C20.5805 20.3489 21.3866 19.1522 21.7152 17.794C21.8776 17.123 21.4653 16.4474 20.7943 16.2851C20.1233 16.1227 19.4477 16.535 19.2853 17.206C19.0986 17.9779 18.6343 18.6835 17.949 19.1976C17.2623 19.7126 16.399 20 15.5003 20C14.6015 20 13.7383 19.7126 13.0516 19.1976C12.3663 18.6835 11.902 17.9779 11.7152 17.206ZM13.223 13.7299C12.5437 13.8532 11.8931 13.4025 11.7699 12.7232C11.7644 12.693 11.7575 12.6658 11.7498 12.6414C11.7421 12.6658 11.7352 12.693 11.7297 12.7232C11.6064 13.4025 10.9558 13.8532 10.2766 13.7299C9.59732 13.6066 9.1466 12.9561 9.26987 12.2768C9.3739 11.7036 9.63746 11.1457 10.0662 10.7169C10.5007 10.2825 11.0912 10 11.7498 10C12.4083 10 12.9989 10.2825 13.4333 10.7169C13.8621 11.1457 14.1257 11.7036 14.2297 12.2768C14.353 12.9561 13.9022 13.6066 13.223 13.7299ZM19.2699 12.7232C19.3931 13.4025 20.0437 13.8532 20.723 13.7299C21.4022 13.6066 21.853 12.9561 21.7297 12.2768C21.6257 11.7036 21.3621 11.1457 20.9333 10.7169C20.4989 10.2825 19.9083 10 19.2498 10C18.5912 10 18.0007 10.2825 17.5662 10.7169C17.1375 11.1457 16.8739 11.7036 16.7699 12.2768C16.6466 12.9561 17.0973 13.6066 17.7766 13.7299C18.4558 13.8532 19.1064 13.4025 19.2297 12.7232C19.2352 12.693 19.2421 12.6658 19.2498 12.6414C19.2575 12.6658 19.2644 12.693 19.2699 12.7232Z" fill="#141414"/>
</g>
</svg>
