<svg width="30" height="30" viewBox="0 0 30 30" fill="none" xmlns="http://www.w3.org/2000/svg">
<g id="icons/Stopwatch/Filled">
<path id="Shape" fill-rule="evenodd" clip-rule="evenodd" d="M26.25 17.5C26.25 23.7132 21.2132 28.75 15 28.75C8.7868 28.75 3.75 23.7132 3.75 17.5C3.75 11.2868 8.7868 6.25 15 6.25C21.2132 6.25 26.25 11.2868 26.25 17.5ZM15 11.25C14.3096 11.25 13.75 11.8096 13.75 12.5V17.5C13.75 18.1904 14.3096 18.75 15 18.75C15.6904 18.75 16.25 18.1904 16.25 17.5V12.5C16.25 11.8096 15.6904 11.25 15 11.25Z" fill="#141414"/>
<g id="Shape_2">
<path d="M12.5 1.25C11.8096 1.25 11.25 1.80964 11.25 2.5C11.25 3.19036 11.8096 3.75 12.5 3.75H17.5C18.1904 3.75 18.75 3.19036 18.75 2.5C18.75 1.80964 18.1904 1.25 17.5 1.25H12.5Z" fill="#141414"/>
<path d="M25.8839 5.36612C25.3957 4.87796 24.6043 4.87796 24.1161 5.36612C23.628 5.85427 23.628 6.64573 24.1161 7.13388L25.3661 8.38388C25.8543 8.87204 26.6457 8.87204 27.1339 8.38388C27.622 7.89573 27.622 7.10427 27.1339 6.61612L25.8839 5.36612Z" fill="#141414"/>
</g>
</g>
</svg>
