<svg width="31" height="30" viewBox="0 0 31 30" fill="none" xmlns="http://www.w3.org/2000/svg">
<g id="vuesax/bold/lamp-charge">
<g id="lamp-charge">
<path id="Vector" d="M19.575 27.5C19.5 27.5 19.4125 27.4875 19.3375 27.4625C16.825 26.75 14.1875 26.75 11.675 27.4625C11.2125 27.5875 10.725 27.325 10.6 26.8625C10.4625 26.4 10.7375 25.9125 11.2 25.7875C14.025 24.9875 17 24.9875 19.825 25.7875C20.2875 25.925 20.5625 26.4 20.425 26.8625C20.3 27.25 19.95 27.5 19.575 27.5Z" fill="#141414"/>
<path id="Vector_2" d="M24.5125 7.94989C23.2125 5.32489 20.7 3.38739 17.7875 2.74989C14.7375 2.07489 11.6125 2.79989 9.225 4.72489C6.825 6.63739 5.4625 9.49989 5.4625 12.5624C5.4625 15.7999 7.4 19.1874 10.325 21.1499V22.1874C10.3125 22.5374 10.3 23.0749 10.725 23.5124C11.1625 23.9624 11.8125 24.0124 12.325 24.0124H18.7375C19.4125 24.0124 19.925 23.8249 20.275 23.4749C20.75 22.9874 20.7375 22.3624 20.725 22.0249V21.1499C24.6 18.5374 27.0375 13.0249 24.5125 7.94989ZM17.65 14.5249L16.3125 16.8499C16.1375 17.1499 15.825 17.3249 15.5 17.3249C15.3375 17.3249 15.175 17.2874 15.0375 17.1999C14.5875 16.9374 14.4375 16.3624 14.6875 15.9249L15.75 14.0749H14.7C14.075 14.0749 13.5625 13.7999 13.2875 13.3374C13.0125 12.8624 13.0375 12.2874 13.35 11.7374L14.6875 9.41239C14.95 8.96239 15.525 8.81239 15.9625 9.06239C16.4125 9.32489 16.5625 9.89989 16.3125 10.3374L15.25 12.1874H16.3C16.925 12.1874 17.4375 12.4624 17.7125 12.9249C17.9875 13.3999 17.9625 13.9874 17.65 14.5249Z" fill="#141414"/>
</g>
</g>
</svg>
