<svg width="31" height="30" viewBox="0 0 31 30" fill="none" xmlns="http://www.w3.org/2000/svg">
<path d="M19.575 27.5C19.5 27.5 19.4125 27.4875 19.3375 27.4625C16.825 26.75 14.1875 26.75 11.675 27.4625C11.2125 27.5875 10.725 27.325 10.6 26.8625C10.4625 26.4 10.7375 25.9125 11.2 25.7875C14.025 24.9875 17 24.9875 19.825 25.7875C20.2875 25.925 20.5625 26.4 20.425 26.8625C20.3 27.25 19.95 27.5 19.575 27.5Z" fill="#141414"/>
<path d="M24.5125 7.95C23.2125 5.325 20.7 3.3875 17.7875 2.75C14.7375 2.075 11.6125 2.8 9.22499 4.725C6.82499 6.6375 5.46249 9.5 5.46249 12.5625C5.46249 15.8 7.39999 19.1875 10.325 21.15V22.1875C10.3125 22.5375 10.3 23.075 10.725 23.5125C11.1625 23.9625 11.8125 24.0125 12.325 24.0125H18.7375C19.4125 24.0125 19.925 23.825 20.275 23.475C20.75 22.9875 20.7375 22.3625 20.725 22.025V21.15C24.6 18.5375 27.0375 13.025 24.5125 7.95ZM17.65 14.525L16.3125 16.85C16.1375 17.15 15.825 17.325 15.5 17.325C15.3375 17.325 15.175 17.2875 15.0375 17.2C14.5875 16.9375 14.4375 16.3625 14.6875 15.925L15.75 14.075H14.7C14.075 14.075 13.5625 13.8 13.2875 13.3375C13.0125 12.8625 13.0375 12.2875 13.35 11.7375L14.6875 9.4125C14.95 8.9625 15.525 8.8125 15.9625 9.0625C16.4125 9.325 16.5625 9.9 16.3125 10.3375L15.25 12.1875H16.3C16.925 12.1875 17.4375 12.4625 17.7125 12.925C17.9875 13.4 17.9625 13.9875 17.65 14.525Z" fill="#141414"/>
</svg>
