<svg width="30" height="30" viewBox="0 0 30 30" fill="none" xmlns="http://www.w3.org/2000/svg">
<g id="icons/Hand Cart/Filled">
<path id="Shape" d="M12.5 23.75C12.5 25.1307 11.3807 26.25 10 26.25C8.61929 26.25 7.5 25.1307 7.5 23.75C7.5 22.3693 8.61929 21.25 10 21.25C11.3807 21.25 12.5 22.3693 12.5 23.75Z" fill="#141414"/>
<g id="Shape_2">
<path d="M27.0887 5.32309C27.6006 5.78626 27.6401 6.57673 27.1769 7.08865L24.2173 10.3598C23.9939 10.6068 24.0033 10.9856 24.2388 11.2211L25.8839 12.8661C26.372 13.3543 26.372 14.1457 25.8839 14.6339C25.3957 15.122 24.6043 15.122 24.1161 14.6339L22.6036 13.1214C22.3509 12.8687 21.9381 12.879 21.6982 13.144L15.3019 20.2137C14.8388 20.7256 14.0483 20.7651 13.5364 20.3019C13.0244 19.8388 12.9849 19.0483 13.4481 18.5364L25.3231 5.41137C25.7863 4.89944 26.5767 4.85992 27.0887 5.32309Z" fill="#141414"/>
<path d="M2.86612 16.6161C3.35427 16.128 4.14573 16.128 4.63388 16.6161L6.50888 18.4911C6.99704 18.9793 6.99704 19.7707 6.50888 20.2589C6.02073 20.747 5.22927 20.747 4.74112 20.2589L2.86612 18.3839C2.37796 17.8957 2.37796 17.1043 2.86612 16.6161Z" fill="#141414"/>
</g>
<path id="Shape_3" d="M4.26776 13.0178L8.23222 16.9822C9.20853 17.9585 10.7914 17.9585 11.7678 16.9822L18.2322 10.5178C19.2085 9.54145 19.2085 7.95854 18.2322 6.98223L14.2678 3.01776C13.2914 2.04145 11.7085 2.04145 10.7322 3.01776L4.26776 9.48223C3.29144 10.4585 3.29145 12.0415 4.26776 13.0178Z" fill="#141414"/>
</g>
</svg>
