<svg width="30" height="30" viewBox="0 0 30 30" fill="none" xmlns="http://www.w3.org/2000/svg">
<g id="icons/Settings/Filled">
<g id="Shape">
<path d="M25 17.5C25 16.8096 24.4404 16.25 23.75 16.25C23.0596 16.25 22.5 16.8096 22.5 17.5L22.5 26.25C22.5 26.9404 23.0596 27.5 23.75 27.5C24.4404 27.5 25 26.9404 25 26.25V17.5Z" fill="#141414"/>
<path d="M23.75 2.5C24.4404 2.5 25 3.05964 25 3.75V5C25 5.69036 24.4404 6.25 23.75 6.25C23.0596 6.25 22.5 5.69036 22.5 5V3.75C22.5 3.05964 23.0596 2.5 23.75 2.5Z" fill="#141414"/>
<path d="M16.25 25C16.25 24.3096 15.6904 23.75 15 23.75C14.3096 23.75 13.75 24.3096 13.75 25V26.25C13.75 26.9404 14.3096 27.5 15 27.5C15.6904 27.5 16.25 26.9404 16.25 26.25V25Z" fill="#141414"/>
<path d="M15 2.5C15.6904 2.5 16.25 3.05964 16.25 3.75V12.5C16.25 13.1904 15.6904 13.75 15 13.75C14.3096 13.75 13.75 13.1904 13.75 12.5V3.75C13.75 3.05964 14.3096 2.5 15 2.5Z" fill="#141414"/>
<path d="M7.5 21.25C7.5 20.5596 6.94036 20 6.25 20C5.55964 20 5 20.5596 5 21.25L5 26.25C5 26.9404 5.55964 27.5 6.25 27.5C6.94036 27.5 7.5 26.9404 7.5 26.25L7.5 21.25Z" fill="#141414"/>
<path d="M7.5 3.75C7.5 3.05964 6.94036 2.5 6.25 2.5C5.55964 2.5 5 3.05965 5 3.75L5 8.75C5 9.44036 5.55964 10 6.25 10C6.94036 10 7.5 9.44036 7.5 8.75L7.5 3.75Z" fill="#141414"/>
</g>
<g id="Shape_2">
<path d="M23.75 13.75C22.3693 13.75 21.25 12.6307 21.25 11.25C21.25 9.86929 22.3693 8.75 23.75 8.75C25.1307 8.75 26.25 9.86929 26.25 11.25C26.25 12.6307 25.1307 13.75 23.75 13.75Z" fill="#141414"/>
<path d="M12.5 18.75C12.5 20.1307 13.6193 21.25 15 21.25C16.3807 21.25 17.5 20.1307 17.5 18.75C17.5 17.3693 16.3807 16.25 15 16.25C13.6193 16.25 12.5 17.3693 12.5 18.75Z" fill="#141414"/>
<path d="M3.75 15C3.75 16.3807 4.86929 17.5 6.25 17.5C7.63071 17.5 8.75 16.3807 8.75 15C8.75 13.6193 7.63071 12.5 6.25 12.5C4.86929 12.5 3.75 13.6193 3.75 15Z" fill="#141414"/>
</g>
</g>
</svg>
