<svg width="30" height="30" viewBox="0 0 30 30" fill="none" xmlns="http://www.w3.org/2000/svg">
<g id="icons/Route/Filled">
<path id="Shape" d="M2.5 6.25C2.5 4.17893 4.17893 2.5 6.25 2.5C8.32107 2.5 10 4.17893 10 6.25C10 8.32107 8.32107 10 6.25 10C4.17893 10 2.5 8.32107 2.5 6.25Z" fill="#141414"/>
<path id="Shape_2" fill-rule="evenodd" clip-rule="evenodd" d="M10.625 25C12.3509 25 13.75 23.6009 13.75 21.875L13.75 8.125C13.75 5.0184 16.2684 2.5 19.375 2.5C22.4816 2.5 25 5.0184 25 8.125L25 17.5C25 18.1904 24.4404 18.75 23.75 18.75C23.0596 18.75 22.5 18.1904 22.5 17.5L22.5 8.125C22.5 6.39911 21.1009 5 19.375 5C17.6491 5 16.25 6.39911 16.25 8.125L16.25 21.875C16.25 24.9816 13.7316 27.5 10.625 27.5C7.5184 27.5 5 24.9816 5 21.875L5 13.75C5 13.0596 5.55964 12.5 6.25 12.5C6.94036 12.5 7.5 13.0596 7.5 13.75L7.5 21.875C7.5 23.6009 8.89911 25 10.625 25Z" fill="#141414"/>
<path id="Shape_3" d="M24.8297 26.8991C24.3474 27.7259 23.1526 27.7259 22.6703 26.899L20.4715 23.1298C19.9854 22.2965 20.5865 21.25 21.5513 21.25L25.9487 21.25C26.9134 21.25 27.5145 22.2965 27.0284 23.1298L24.8297 26.8991Z" fill="#141414"/>
</g>
</svg>
