<svg width="30" height="30" viewBox="0 0 30 30" fill="none" xmlns="http://www.w3.org/2000/svg">
<g id="icons/Monitor/Filled">
<path id="Shape" d="M8.75 26.25C8.75 25.5596 9.30964 25 10 25H20C20.6904 25 21.25 25.5596 21.25 26.25C21.25 26.9404 20.6904 27.5 20 27.5H10C9.30964 27.5 8.75 26.9404 8.75 26.25Z" fill="#141414"/>
<path id="Shape_2" fill-rule="evenodd" clip-rule="evenodd" d="M6.25 22.5C4.17893 22.5 2.5 20.8211 2.5 18.75V6.25C2.5 4.17893 4.17893 2.5 6.25 2.5H23.75C25.8211 2.5 27.5 4.17893 27.5 6.25V18.75C27.5 20.8211 25.8211 22.5 23.75 22.5L6.25 22.5ZM7.5 8.75C7.5 8.05964 8.05964 7.5 8.75 7.5H17.5C18.1904 7.5 18.75 8.05964 18.75 8.75C18.75 9.44036 18.1904 10 17.5 10H8.75C8.05964 10 7.5 9.44036 7.5 8.75ZM8.75 12.5C8.05964 12.5 7.5 13.0596 7.5 13.75C7.5 14.4404 8.05964 15 8.75 15H11.25C11.9404 15 12.5 14.4404 12.5 13.75C12.5 13.0596 11.9404 12.5 11.25 12.5H8.75Z" fill="#141414"/>
</g>
</svg>
