<svg width="31" height="30" viewBox="0 0 31 30" fill="none" xmlns="http://www.w3.org/2000/svg">
<path d="M14.25 2.4875C8.0375 2.4875 2.9875 7.5375 2.9875 13.75C2.9875 19.9625 8.0375 25.0125 14.25 25.0125C20.4625 25.0125 25.5125 19.9625 25.5125 13.75C25.5125 7.5375 20.4625 2.4875 14.25 2.4875ZM14.25 16.5625H10.5C9.9875 16.5625 9.5625 16.1375 9.5625 15.625C9.5625 15.1125 9.9875 14.6875 10.5 14.6875H14.25C14.7625 14.6875 15.1875 15.1125 15.1875 15.625C15.1875 16.1375 14.7625 16.5625 14.25 16.5625ZM18 12.8125H10.5C9.9875 12.8125 9.5625 12.3875 9.5625 11.875C9.5625 11.3625 9.9875 10.9375 10.5 10.9375H18C18.5125 10.9375 18.9375 11.3625 18.9375 11.875C18.9375 12.3875 18.5125 12.8125 18 12.8125Z" fill="#141414"/>
<path d="M27.9876 23.6875C27.5751 22.925 26.7001 22.5 25.5251 22.5C24.6376 22.5 23.8751 22.8625 23.4251 23.4875C22.9751 24.1125 22.8751 24.95 23.1501 25.7875C23.6876 27.4125 24.6251 27.775 25.1376 27.8375C25.2126 27.85 25.2876 27.85 25.3751 27.85C25.9251 27.85 26.7751 27.6125 27.6001 26.375C28.2626 25.4125 28.3876 24.45 27.9876 23.6875Z" fill="#141414"/>
</svg>
