<svg width="56" height="56" viewBox="0 0 56 56" fill="none" xmlns="http://www.w3.org/2000/svg">
<rect x="4" y="4" width="48" height="48" rx="20" fill="#C0F3DD"/>
<rect x="4" y="4" width="48" height="48" rx="20" stroke="#ECF9F3" stroke-width="8"/>
<path d="M25.1596 26.87C25.0596 26.86 24.9396 26.86 24.8296 26.87C22.4496 26.79 20.5596 24.84 20.5596 22.44C20.5596 19.99 22.5396 18 24.9996 18C27.4496 18 29.4396 19.99 29.4396 22.44C29.4296 24.84 27.5396 26.79 25.1596 26.87Z" stroke="#1DCE80" stroke-width="2" stroke-linecap="round" stroke-linejoin="round"/>
<path d="M32.4103 20C34.3503 20 35.9103 21.57 35.9103 23.5C35.9103 25.39 34.4103 26.93 32.5403 27C32.4603 26.99 32.3703 26.99 32.2803 27" stroke="#1DCE80" stroke-width="2" stroke-linecap="round" stroke-linejoin="round"/>
<path d="M20.1597 30.56C17.7397 32.18 17.7397 34.82 20.1597 36.43C22.9097 38.27 27.4197 38.27 30.1697 36.43C32.5897 34.81 32.5897 32.17 30.1697 30.56C27.4297 28.73 22.9197 28.73 20.1597 30.56Z" stroke="#1DCE80" stroke-width="2" stroke-linecap="round" stroke-linejoin="round"/>
<path d="M34.3398 36C35.0598 35.85 35.7398 35.56 36.2998 35.13C37.8598 33.96 37.8598 32.03 36.2998 30.86C35.7498 30.44 35.0798 30.16 34.3698 30" stroke="#1DCE80" stroke-width="2" stroke-linecap="round" stroke-linejoin="round"/>
</svg>
