<svg width="56" height="56" viewBox="0 0 56 56" fill="none" xmlns="http://www.w3.org/2000/svg">
<rect x="4" y="4" width="48" height="48" rx="20" fill="#C0F3DD"/>
<rect x="4" y="4" width="48" height="48" rx="20" stroke="#ECF9F3" stroke-width="8"/>
<path d="M38 27.1V22.9C38 19.4 36.6 18 33.1 18H28.9C25.4 18 24 19.4 24 22.9V24H27.1C30.6 24 32 25.4 32 28.9V32H33.1C36.6 32 38 30.6 38 27.1Z" stroke="#1DCE80" stroke-width="2" stroke-linecap="round" stroke-linejoin="round"/>
<path d="M32 33.1V28.9C32 25.4 30.6 24 27.1 24H22.9C19.4 24 18 25.4 18 28.9V33.1C18 36.6 19.4 38 22.9 38H27.1C30.6 38 32 36.6 32 33.1Z" stroke="#1DCE80" stroke-width="2" stroke-linecap="round" stroke-linejoin="round"/>
<path d="M22.0801 31L24.0301 32.95L27.9201 29.05" stroke="#1DCE80" stroke-width="2" stroke-linecap="round" stroke-linejoin="round"/>
</svg>
