<svg width="56" height="56" viewBox="0 0 56 56" fill="none" xmlns="http://www.w3.org/2000/svg">
<rect x="4" y="4" width="48" height="48" rx="20" fill="#C0F3DD"/>
<rect x="4" y="4" width="48" height="48" rx="20" stroke="#ECF9F3" stroke-width="8"/>
<path d="M35.86 24.0896C35.86 24.5096 35.83 24.9196 35.78 25.3096C35.32 25.1096 34.82 24.9996 34.29 24.9996C33.07 24.9996 31.99 25.5896 31.32 26.4896C30.64 25.5896 29.56 24.9996 28.34 24.9996C26.29 24.9996 24.63 26.6696 24.63 28.7396C24.63 31.4196 26.05 33.4696 27.63 34.8596C27.58 34.8896 27.53 34.8996 27.48 34.9196C27.18 35.0296 26.68 35.0296 26.38 34.9196C23.79 34.0296 18 30.3496 18 24.0896C18 21.3296 20.22 19.0996 22.96 19.0996C24.59 19.0996 26.03 19.8796 26.93 21.0896C27.84 19.8796 29.28 19.0996 30.9 19.0996C33.64 19.0996 35.86 21.3296 35.86 24.0896Z" stroke="#1DCE80" stroke-width="2" stroke-linecap="round" stroke-linejoin="round"/>
<path d="M37.9999 28.74C37.9999 33.42 33.6699 36.18 31.7299 36.84C31.4999 36.92 31.1299 36.92 30.8999 36.84C30.0699 36.56 28.7999 35.89 27.6299 34.86C26.0499 33.47 24.6299 31.42 24.6299 28.74C24.6299 26.67 26.2899 25 28.3399 25C29.5599 25 30.6399 25.59 31.3199 26.49C31.9899 25.59 33.0699 25 34.2899 25C34.8199 25 35.3199 25.11 35.7799 25.31C37.0899 25.89 37.9999 27.2 37.9999 28.74Z" stroke="#1DCE80" stroke-width="2" stroke-linecap="round" stroke-linejoin="round"/>
</svg>
