<svg width="56" height="56" viewBox="0 0 56 56" fill="none" xmlns="http://www.w3.org/2000/svg">
<rect x="4" y="4" width="48" height="48" rx="20" fill="#C0F3DD"/>
<rect x="4" y="4" width="48" height="48" rx="20" stroke="#ECF9F3" stroke-width="8"/>
<path d="M28 31C29.6569 31 31 29.6569 31 28C31 26.3431 29.6569 25 28 25C26.3431 25 25 26.3431 25 28C25 29.6569 26.3431 31 28 31Z" stroke="#1DCE80" stroke-width="2" stroke-miterlimit="10" stroke-linecap="round" stroke-linejoin="round"/>
<path d="M18 28.8801V27.1201C18 26.0801 18.85 25.2201 19.9 25.2201C21.71 25.2201 22.45 23.9401 21.54 22.3701C21.02 21.4701 21.33 20.3001 22.24 19.7801L23.97 18.7901C24.76 18.3201 25.78 18.6001 26.25 19.3901L26.36 19.5801C27.26 21.1501 28.74 21.1501 29.65 19.5801L29.76 19.3901C30.23 18.6001 31.25 18.3201 32.04 18.7901L33.77 19.7801C34.68 20.3001 34.99 21.4701 34.47 22.3701C33.56 23.9401 34.3 25.2201 36.11 25.2201C37.15 25.2201 38.01 26.0701 38.01 27.1201V28.8801C38.01 29.9201 37.16 30.7801 36.11 30.7801C34.3 30.7801 33.56 32.0601 34.47 33.6301C34.99 34.5401 34.68 35.7001 33.77 36.2201L32.04 37.2101C31.25 37.6801 30.23 37.4001 29.76 36.6101L29.65 36.4201C28.75 34.8501 27.27 34.8501 26.36 36.4201L26.25 36.6101C25.78 37.4001 24.76 37.6801 23.97 37.2101L22.24 36.2201C21.33 35.7001 21.02 34.5301 21.54 33.6301C22.45 32.0601 21.71 30.7801 19.9 30.7801C18.85 30.7801 18 29.9201 18 28.8801Z" stroke="#1DCE80" stroke-width="2" stroke-miterlimit="10" stroke-linecap="round" stroke-linejoin="round"/>
</svg>
