<svg width="36" height="36" viewBox="0 0 36 36" fill="none" xmlns="http://www.w3.org/2000/svg">
<g filter="url(#filter0_d_250_33395)">
<rect x="2" y="1" width="32" height="32" rx="10" fill="white" shape-rendering="crispEdges"/>
<rect x="2.75" y="1.75" width="30.5" height="30.5" rx="9.25" stroke="#84E5BB" stroke-width="1.5" shape-rendering="crispEdges"/>
<path d="M15.6663 21.6663H15.333C12.6663 21.6663 11.333 20.9997 11.333 17.6663V14.333C11.333 11.6663 12.6663 10.333 15.333 10.333H20.6663C23.333 10.333 24.6663 11.6663 24.6663 14.333V17.6663C24.6663 20.333 23.333 21.6663 20.6663 21.6663H20.333C20.1263 21.6663 19.9263 21.7663 19.7997 21.933L18.7997 23.2663C18.3597 23.853 17.6397 23.853 17.1997 23.2663L16.1997 21.933C16.093 21.7863 15.8463 21.6663 15.6663 21.6663Z" stroke="#1DCE80" stroke-width="1.3" stroke-miterlimit="10" stroke-linecap="round" stroke-linejoin="round"/>
<path d="M14.667 14.333H21.3337" stroke="#1DCE80" stroke-width="1.3" stroke-linecap="round" stroke-linejoin="round"/>
<path d="M14.667 17.667H18.667" stroke="#1DCE80" stroke-width="1.3" stroke-linecap="round" stroke-linejoin="round"/>
</g>
<defs>
<filter id="filter0_d_250_33395" x="0" y="0" width="36" height="36" filterUnits="userSpaceOnUse" color-interpolation-filters="sRGB">
<feFlood flood-opacity="0" result="BackgroundImageFix"/>
<feColorMatrix in="SourceAlpha" type="matrix" values="0 0 0 0 0 0 0 0 0 0 0 0 0 0 0 0 0 0 127 0" result="hardAlpha"/>
<feOffset dy="1"/>
<feGaussianBlur stdDeviation="1"/>
<feComposite in2="hardAlpha" operator="out"/>
<feColorMatrix type="matrix" values="0 0 0 0 0.0627451 0 0 0 0 0.0941176 0 0 0 0 0.156863 0 0 0 0.05 0"/>
<feBlend mode="normal" in2="BackgroundImageFix" result="effect1_dropShadow_250_33395"/>
<feBlend mode="normal" in="SourceGraphic" in2="effect1_dropShadow_250_33395" result="shape"/>
</filter>
</defs>
</svg>
