<svg width="36" height="36" viewBox="0 0 36 36" fill="none" xmlns="http://www.w3.org/2000/svg">
<g filter="url(#filter0_d_250_33400)">
<rect x="2" y="1" width="32" height="32" rx="10" fill="white" shape-rendering="crispEdges"/>
<rect x="2.75" y="1.75" width="30.5" height="30.5" rx="9.25" stroke="#84E5BB" stroke-width="1.5" shape-rendering="crispEdges"/>
<path d="M13.64 21.3262V19.3795C13.64 18.7329 14.1467 18.1529 14.8667 18.1529C15.5134 18.1529 16.0934 18.6595 16.0934 19.3795V21.2529C16.0934 22.5529 15.0134 23.6329 13.7134 23.6329C12.4134 23.6329 11.3334 22.5462 11.3334 21.2529V17.1462C11.26 13.3995 14.22 10.3662 17.9667 10.3662C21.7134 10.3662 24.6667 13.3995 24.6667 17.0729V21.1795C24.6667 22.4795 23.5867 23.5595 22.2867 23.5595C20.9867 23.5595 19.9067 22.4795 19.9067 21.1795V19.3062C19.9067 18.6595 20.4134 18.0795 21.1334 18.0795C21.78 18.0795 22.36 18.5862 22.36 19.3062V21.3262" stroke="#1DCE80" stroke-width="1.3" stroke-linecap="round" stroke-linejoin="round"/>
</g>
<defs>
<filter id="filter0_d_250_33400" x="0" y="0" width="36" height="36" filterUnits="userSpaceOnUse" color-interpolation-filters="sRGB">
<feFlood flood-opacity="0" result="BackgroundImageFix"/>
<feColorMatrix in="SourceAlpha" type="matrix" values="0 0 0 0 0 0 0 0 0 0 0 0 0 0 0 0 0 0 127 0" result="hardAlpha"/>
<feOffset dy="1"/>
<feGaussianBlur stdDeviation="1"/>
<feComposite in2="hardAlpha" operator="out"/>
<feColorMatrix type="matrix" values="0 0 0 0 0.0627451 0 0 0 0 0.0941176 0 0 0 0 0.156863 0 0 0 0.05 0"/>
<feBlend mode="normal" in2="BackgroundImageFix" result="effect1_dropShadow_250_33400"/>
<feBlend mode="normal" in="SourceGraphic" in2="effect1_dropShadow_250_33400" result="shape"/>
</filter>
</defs>
</svg>
