<svg width="36" height="36" viewBox="0 0 36 36" fill="none" xmlns="http://www.w3.org/2000/svg">
<g filter="url(#filter0_d_177_27291)">
<rect x="2" y="1" width="32" height="32" rx="10" fill="white" shape-rendering="crispEdges"/>
<rect x="2.75" y="1.75" width="30.5" height="30.5" rx="9.25" stroke="#84E5BB" stroke-width="1.5" shape-rendering="crispEdges"/>
<path d="M16.9934 10.4867L13.6668 11.74C12.9001 12.0267 12.2734 12.9333 12.2734 13.7467V18.7C12.2734 19.4867 12.7934 20.52 13.4268 20.9933L16.2934 23.1333C17.2334 23.84 18.7801 23.84 19.7201 23.1333L22.5868 20.9933C23.2201 20.52 23.7401 19.4867 23.7401 18.7V13.7467C23.7401 12.9267 23.1134 12.02 22.3468 11.7333L19.0201 10.4867C18.4534 10.28 17.5468 10.28 16.9934 10.4867Z" stroke="#1DCE80" stroke-width="1.3" stroke-linecap="round" stroke-linejoin="round"/>
<path d="M16.0332 16.9133L17.1065 17.9867L19.9732 15.12" stroke="#1DCE80" stroke-width="1.3" stroke-linecap="round" stroke-linejoin="round"/>
</g>
<defs>
<filter id="filter0_d_177_27291" x="0" y="0" width="36" height="36" filterUnits="userSpaceOnUse" color-interpolation-filters="sRGB">
<feFlood flood-opacity="0" result="BackgroundImageFix"/>
<feColorMatrix in="SourceAlpha" type="matrix" values="0 0 0 0 0 0 0 0 0 0 0 0 0 0 0 0 0 0 127 0" result="hardAlpha"/>
<feOffset dy="1"/>
<feGaussianBlur stdDeviation="1"/>
<feComposite in2="hardAlpha" operator="out"/>
<feColorMatrix type="matrix" values="0 0 0 0 0.0627451 0 0 0 0 0.0941176 0 0 0 0 0.156863 0 0 0 0.05 0"/>
<feBlend mode="normal" in2="BackgroundImageFix" result="effect1_dropShadow_177_27291"/>
<feBlend mode="normal" in="SourceGraphic" in2="effect1_dropShadow_177_27291" result="shape"/>
</filter>
</defs>
</svg>
