<svg width="36" height="36" viewBox="0 0 36 36" fill="none" xmlns="http://www.w3.org/2000/svg">
<g filter="url(#filter0_d_177_27286)">
<rect x="2" y="1" width="32" height="32" rx="10" fill="white" shape-rendering="crispEdges"/>
<rect x="2.75" y="1.75" width="30.5" height="30.5" rx="9.25" stroke="#84E5BB" stroke-width="1.5" shape-rendering="crispEdges"/>
<path d="M17.334 22.3334C20.6477 22.3334 23.334 19.6471 23.334 16.3334C23.334 13.0197 20.6477 10.3334 17.334 10.3334C14.0203 10.3334 11.334 13.0197 11.334 16.3334C11.334 19.6471 14.0203 22.3334 17.334 22.3334Z" stroke="#1DCE80" stroke-width="1.3" stroke-linecap="round" stroke-linejoin="round"/>
<path d="M22.6196 22.7932C22.973 23.8599 23.7796 23.9666 24.3996 23.0332C24.9663 22.1799 24.593 21.4799 23.5663 21.4799C22.8063 21.4732 22.3796 22.0666 22.6196 22.7932Z" stroke="#1DCE80" stroke-width="1.3" stroke-linecap="round" stroke-linejoin="round"/>
</g>
<defs>
<filter id="filter0_d_177_27286" x="0" y="0" width="36" height="36" filterUnits="userSpaceOnUse" color-interpolation-filters="sRGB">
<feFlood flood-opacity="0" result="BackgroundImageFix"/>
<feColorMatrix in="SourceAlpha" type="matrix" values="0 0 0 0 0 0 0 0 0 0 0 0 0 0 0 0 0 0 127 0" result="hardAlpha"/>
<feOffset dy="1"/>
<feGaussianBlur stdDeviation="1"/>
<feComposite in2="hardAlpha" operator="out"/>
<feColorMatrix type="matrix" values="0 0 0 0 0.0627451 0 0 0 0 0.0941176 0 0 0 0 0.156863 0 0 0 0.05 0"/>
<feBlend mode="normal" in2="BackgroundImageFix" result="effect1_dropShadow_177_27286"/>
<feBlend mode="normal" in="SourceGraphic" in2="effect1_dropShadow_177_27286" result="shape"/>
</filter>
</defs>
</svg>
