<svg width="36" height="36" viewBox="0 0 36 36" fill="none" xmlns="http://www.w3.org/2000/svg">
<g filter="url(#filter0_d_250_33390)">
<rect x="2" y="1" width="32" height="32" rx="10" fill="white" shape-rendering="crispEdges"/>
<rect x="2.75" y="1.75" width="30.5" height="30.5" rx="9.25" stroke="#84E5BB" stroke-width="1.5" shape-rendering="crispEdges"/>
<path d="M22 21.5732H21.4933C20.96 21.5732 20.4533 21.7798 20.08 22.1532L18.94 23.2799C18.42 23.7932 17.5733 23.7932 17.0533 23.2799L15.9133 22.1532C15.54 21.7798 15.0267 21.5732 14.5 21.5732H14C12.8933 21.5732 12 20.6865 12 19.5932V12.3198C12 11.2265 12.8933 10.3398 14 10.3398H22C23.1067 10.3398 24 11.2265 24 12.3198V19.5932C24 20.6798 23.1067 21.5732 22 21.5732Z" stroke="#1DCE80" stroke-width="1.3" stroke-miterlimit="10" stroke-linecap="round" stroke-linejoin="round"/>
<path d="M14.667 15.1062C14.667 14.4862 15.1737 13.9795 15.7937 13.9795C16.4137 13.9795 16.9203 14.4862 16.9203 15.1062C16.9203 16.3595 15.1403 16.4929 14.747 17.6862C14.667 17.9329 14.8737 18.1795 15.1337 18.1795H16.9203" stroke="#1DCE80" stroke-width="1.3" stroke-linecap="round" stroke-linejoin="round"/>
<path d="M20.6932 18.1732V14.3666C20.6932 14.1933 20.5798 14.0399 20.4132 13.9932C20.2465 13.9466 20.0665 14.0132 19.9732 14.1599C19.4932 14.9332 18.9732 15.8132 18.5198 16.5866C18.4465 16.7132 18.4465 16.8799 18.5198 17.0066C18.5932 17.1332 18.7332 17.2132 18.8865 17.2132H21.3332" stroke="#1DCE80" stroke-width="1.3" stroke-linecap="round" stroke-linejoin="round"/>
</g>
<defs>
<filter id="filter0_d_250_33390" x="0" y="0" width="36" height="36" filterUnits="userSpaceOnUse" color-interpolation-filters="sRGB">
<feFlood flood-opacity="0" result="BackgroundImageFix"/>
<feColorMatrix in="SourceAlpha" type="matrix" values="0 0 0 0 0 0 0 0 0 0 0 0 0 0 0 0 0 0 127 0" result="hardAlpha"/>
<feOffset dy="1"/>
<feGaussianBlur stdDeviation="1"/>
<feComposite in2="hardAlpha" operator="out"/>
<feColorMatrix type="matrix" values="0 0 0 0 0.0627451 0 0 0 0 0.0941176 0 0 0 0 0.156863 0 0 0 0.05 0"/>
<feBlend mode="normal" in2="BackgroundImageFix" result="effect1_dropShadow_250_33390"/>
<feBlend mode="normal" in="SourceGraphic" in2="effect1_dropShadow_250_33390" result="shape"/>
</filter>
</defs>
</svg>
